<?xml version="1.0" standalone="no"?>
<!DOCTYPE svg PUBLIC "-//W3C//DTD SVG 1.1//EN" "http://www.w3.org/Graphics/SVG/1.1/DTD/svg11.dtd" >
<svg xmlns="http://www.w3.org/2000/svg" xmlns:xlink="http://www.w3.org/1999/xlink" version="1.1" viewBox="-1042 0 1057 1000">
  <g transform="matrix(1 0 0 -1 0 800)">
   <path fill="currentColor"
d="M-1030.02 685.766l37.1855 54.043c2.29688 3.33789 7.27148 3.34473 9.66016 0.305664l45.2256 -57.542c2.12988 -2.71191 1.47754 -6.79004 -1.39258 -8.70215c-0.646484 -0.429688 -1.41699 -0.741211 -2.13965 -0.886719l-7.70508 -1.55469
c-2.23438 -0.450195 -4.58496 0.498047 -5.90234 2.17188l-24.293 30.8799l1.17383 -123.925c0.0332031 -3.49219 -3.05371 -6.22168 -6.31543 -6.04785l-7.37012 0.388672c-3.27246 0.170898 -5.69824 3.08691 -5.68457 6.01855l0.578125 122.085l-19.7871 -28.707
c-1.95703 -2.83984 -6.04492 -3.42676 -8.72266 -1.25195c-0.408203 0.331055 -1.05078 1.10254 -1.09082 1.15723l-3.34961 4.66504c-1.5498 2.15723 -1.26953 5.16016 -0.0703125 6.90234z" />
  </g>

</svg>
