<?xml version="1.0" standalone="no"?>
<!DOCTYPE svg PUBLIC "-//W3C//DTD SVG 20010904//EN"
 "http://www.w3.org/TR/2001/REC-SVG-20010904/DTD/svg10.dtd">
<svg version="1.0" xmlns="http://www.w3.org/2000/svg"
 width="155.414634pt" height="72.000000pt" viewBox="0 0 155.414634 72.000000"
 preserveAspectRatio="xMidYMid meet">
<metadata>
Created by potrace 1.15, written by Peter Selinger 2001-2017
</metadata>
<g transform="translate(0.000000,72.000000) scale(0.087805,-0.087805)"
fill="#000000" stroke="none">
<path d="M100 627 l35 -12 0 -210 c0 -189 -2 -210 -17 -213 -11 -2 -23 8 -33
28 -20 38 -58 39 -63 2 -8 -53 57 -79 118 -47 56 29 64 61 70 260 l5 180 35
12 c31 11 23 12 -75 12 -98 0 -106 -1 -75 -12z"/>
<path d="M1010 560 c-7 -17 -28 -43 -46 -60 -41 -35 -42 -40 -9 -40 l25 0 0
-130 c0 -117 2 -132 20 -150 27 -27 52 -25 89 6 37 31 41 51 6 28 -48 -32 -55
-17 -55 121 l0 125 35 0 c19 0 35 5 35 10 0 6 -16 10 -35 10 l-35 0 0 55 c0
61 -11 70 -30 25z"/>
<path d="M725 488 c-32 -18 -44 -40 -45 -78 0 -48 8 -57 87 -104 56 -34 69
-46 71 -71 10 -82 -106 -67 -144 19 -13 31 -13 31 -14 -26 l0 -56 64 -7 c97
-11 146 22 146 98 0 39 -23 64 -90 97 -61 30 -80 49 -80 77 0 15 9 27 25 35
37 17 76 0 97 -40 25 -51 28 -50 28 9 l0 54 -63 2 c-34 1 -71 -3 -82 -9z"/>
<path d="M1565 488 c-32 -18 -44 -40 -45 -78 0 -48 8 -57 87 -104 56 -34 69
-46 71 -71 10 -82 -106 -67 -144 19 -13 31 -13 31 -14 -26 l0 -56 64 -7 c97
-11 146 22 146 98 0 39 -23 64 -90 97 -61 30 -80 49 -80 77 0 15 9 27 25 35
37 17 76 0 97 -40 25 -51 28 -50 28 9 l0 54 -63 2 c-34 1 -71 -3 -82 -9z"/>
<path d="M301 479 c33 -12 39 -38 39 -171 0 -92 2 -101 25 -123 34 -35 76 -33
118 5 19 17 37 30 41 30 3 0 6 -14 6 -31 0 -34 5 -34 79 -1 35 16 35 16 10 20
-23 3 -27 9 -33 49 -3 25 -6 88 -6 139 l0 94 -52 0 c-45 -1 -50 -2 -33 -12 32
-18 35 -28 35 -129 0 -86 -2 -98 -22 -117 -32 -29 -69 -36 -93 -18 -18 13 -20
28 -23 145 l-4 131 -56 -1 c-49 0 -53 -2 -31 -10z"/>
<path d="M1141 479 c33 -12 39 -38 39 -171 0 -92 2 -101 25 -123 34 -35 76
-33 118 5 19 17 37 30 41 30 3 0 6 -14 6 -31 0 -34 5 -34 79 -1 35 16 35 16
10 20 -23 3 -27 9 -33 49 -3 25 -6 88 -6 139 l0 94 -52 0 c-45 -1 -50 -2 -33
-12 32 -18 35 -28 35 -129 0 -86 -2 -98 -22 -117 -32 -29 -69 -36 -93 -18 -18
13 -20 28 -23 145 l-4 131 -56 -1 c-49 0 -53 -2 -31 -10z"/>
</g>
</svg>
