<?xml version="1.0" standalone="no"?>
<!DOCTYPE svg PUBLIC "-//W3C//DTD SVG 20010904//EN"
 "http://www.w3.org/TR/2001/REC-SVG-20010904/DTD/svg10.dtd">
<svg version="1.0" xmlns="http://www.w3.org/2000/svg"
 width="134.341463pt" height="72.000000pt" viewBox="0 0 134.341463 72.000000"
 preserveAspectRatio="xMidYMid meet">
<metadata>
Created by potrace 1.15, written by Peter Selinger 2001-2017
</metadata>
<g transform="translate(0.000000,72.000000) scale(0.087805,-0.087805)"
fill="#000000" stroke="none">
<path d="M161 653 c-37 -18 -70 -78 -71 -125 0 -24 -4 -28 -30 -28 -20 0 -30
-5 -30 -15 0 -10 10 -15 30 -15 l30 0 0 -130 0 -131 -32 -14 c-31 -13 -27 -14
67 -13 55 0 89 3 75 5 -47 9 -50 18 -50 154 l0 129 40 0 c29 0 40 4 40 15 0
11 -11 15 -40 15 l-40 0 0 51 c0 65 13 89 48 89 20 0 35 -9 51 -30 16 -23 28
-29 42 -25 18 6 19 0 19 -195 0 -199 0 -201 -22 -210 -16 -6 2 -9 62 -8 47 0
76 2 65 5 -42 10 -45 26 -45 266 l0 228 -22 -7 c-24 -9 -47 -8 -113 1 -27 4
-51 0 -74 -12z"/>
<path d="M1400 648 c-43 -20 -44 -21 -20 -27 23 -6 25 -12 28 -75 3 -66 3 -67
-19 -55 -12 6 -41 9 -66 6 -146 -16 -190 -259 -59 -321 44 -21 63 -20 109 4
l37 20 0 -21 c0 -22 9 -21 79 9 35 15 35 15 11 22 l-25 6 -3 227 c-2 172 -5
227 -15 226 -6 0 -32 -10 -57 -21z m-20 -188 c27 -27 31 -51 28 -150 -3 -80
-4 -85 -30 -99 -75 -42 -146 63 -124 182 14 73 83 110 126 67z"/>
<path d="M550 481 c-74 -40 -105 -156 -63 -238 27 -51 63 -75 120 -80 39 -4
55 0 82 19 57 38 75 71 79 143 4 57 1 70 -21 104 -45 67 -127 89 -197 52z
m110 -29 c51 -52 65 -177 26 -236 -24 -37 -86 -37 -115 0 -29 37 -44 99 -39
163 4 44 10 59 32 78 36 30 61 29 96 -5z"/>
<path d="M910 481 c-74 -40 -105 -156 -63 -238 27 -51 63 -75 120 -80 39 -4
55 0 82 19 57 38 75 71 79 143 4 57 1 70 -21 104 -45 67 -127 89 -197 52z
m110 -29 c51 -52 65 -177 26 -236 -24 -37 -86 -37 -115 0 -29 37 -44 99 -39
163 4 44 10 59 32 78 36 30 61 29 96 -5z"/>
</g>
</svg>
