<?xml version="1.0" standalone="no"?>
<!DOCTYPE svg PUBLIC "-//W3C//DTD SVG 20010904//EN"
 "http://www.w3.org/TR/2001/REC-SVG-20010904/DTD/svg10.dtd">
<svg version="1.0" xmlns="http://www.w3.org/2000/svg"
 width="116.780488pt" height="72.000000pt" viewBox="0 0 116.780488 72.000000"
 preserveAspectRatio="xMidYMid meet">
<metadata>
Created by potrace 1.15, written by Peter Selinger 2001-2017
</metadata>
<g transform="translate(0.000000,72.000000) scale(0.087805,-0.087805)"
fill="#000000" stroke="none">
<path d="M1202 658 c-19 -19 -14 -46 9 -53 30 -10 58 19 43 43 -14 22 -36 26
-52 10z"/>
<path d="M241 628 c-74 -189 -176 -407 -201 -431 l-30 -27 77 1 c46 1 68 4 54
8 -41 11 -46 31 -21 89 l22 52 95 0 94 0 19 -46 c27 -62 25 -80 -7 -92 -22 -8
-7 -10 72 -11 69 0 93 3 78 9 -33 13 -52 49 -145 272 -45 109 -86 198 -91 198
-4 0 -11 -10 -16 -22z m41 -188 l37 -90 -81 0 c-60 0 -79 3 -75 13 28 73 71
167 76 167 3 0 23 -41 43 -90z"/>
<path d="M583 481 c-51 -20 -63 -31 -35 -31 29 0 33 -23 30 -150 -3 -100 -4
-105 -28 -117 -22 -11 -15 -13 60 -13 75 0 82 2 60 13 -24 12 -25 17 -28 118
-2 92 0 109 17 130 17 22 21 22 46 9 21 -11 30 -12 45 -2 27 17 57 15 64 -4 3
-9 6 -62 6 -118 0 -103 -7 -127 -40 -139 -8 -3 23 -5 70 -5 49 0 75 3 60 7
-25 7 -25 9 -28 124 l-3 117 33 20 c41 25 53 25 78 0 19 -19 20 -31 18 -133
-3 -108 -4 -112 -28 -124 -22 -11 -15 -13 60 -13 75 0 82 2 60 13 -24 12 -25
17 -30 133 -5 131 -19 168 -64 180 -32 8 -59 -2 -96 -33 l-30 -25 0 31 c0 37
-4 37 -70 11 -27 -11 -50 -15 -50 -10 0 5 -9 14 -20 20 -24 13 -55 0 -82 -34
l-18 -21 0 27 c0 36 -8 39 -57 19z"/>
<path d="M1180 477 c-42 -19 -43 -21 -19 -24 23 -4 27 -10 33 -50 16 -116 4
-210 -28 -223 -14 -6 5 -9 59 -9 44 1 73 3 65 6 -35 12 -40 35 -40 180 0 108
-3 143 -12 142 -7 0 -33 -10 -58 -22z"/>
</g>
</svg>
