<?xml version="1.0" standalone="no"?>
<!DOCTYPE svg PUBLIC "-//W3C//DTD SVG 20010904//EN"
 "http://www.w3.org/TR/2001/REC-SVG-20010904/DTD/svg10.dtd">
<svg version="1.0" xmlns="http://www.w3.org/2000/svg"
 width="85.170732pt" height="72.000000pt" viewBox="0 0 85.170732 72.000000"
 preserveAspectRatio="xMidYMid meet">
<metadata>
Created by potrace 1.15, written by Peter Selinger 2001-2017
</metadata>
<g transform="translate(0.000000,72.000000) scale(0.087805,-0.087805)"
fill="#000000" stroke="none">
<path d="M161 653 c-37 -18 -70 -78 -71 -125 0 -24 -4 -28 -30 -28 -20 0 -30
-5 -30 -15 0 -10 10 -15 30 -15 l30 0 0 -130 0 -131 -32 -14 c-31 -13 -27 -14
67 -13 55 0 89 3 75 5 -47 9 -50 18 -50 154 l0 129 40 0 c29 0 40 4 40 15 0
11 -11 15 -40 15 l-40 0 0 51 c0 28 5 59 10 70 16 30 59 24 89 -12 18 -21 31
-28 44 -24 45 18 -8 85 -67 85 -17 0 -46 -8 -65 -17z"/>
<path d="M350 481 c-74 -40 -105 -156 -63 -238 27 -51 63 -75 120 -80 39 -4
55 0 82 19 57 38 75 71 79 143 4 57 1 70 -21 104 -45 67 -127 89 -197 52z
m110 -29 c51 -52 65 -177 26 -236 -24 -37 -86 -37 -115 0 -29 37 -44 99 -39
163 4 44 10 59 32 78 36 30 61 29 96 -5z"/>
<path d="M631 475 c24 -13 109 -124 109 -143 0 -14 -97 -139 -117 -151 -14 -8
-4 -10 41 -11 52 0 57 2 42 13 -22 16 -16 39 23 86 33 40 41 37 78 -26 26 -44
26 -46 8 -59 -16 -12 -9 -14 61 -14 69 1 76 2 56 13 -20 12 -132 158 -132 173
0 16 75 106 99 119 25 14 24 14 -32 15 -53 0 -56 -1 -46 -18 10 -15 7 -26 -13
-56 l-26 -37 -22 37 c-19 30 -21 40 -12 55 12 18 8 19 -65 19 -72 -1 -76 -2
-52 -15z"/>
</g>
</svg>
