<?xml version="1.0" standalone="no"?>
<!DOCTYPE svg PUBLIC "-//W3C//DTD SVG 20010904//EN"
 "http://www.w3.org/TR/2001/REC-SVG-20010904/DTD/svg10.dtd">
<svg version="1.0" xmlns="http://www.w3.org/2000/svg"
 width="74.634146pt" height="72.000000pt" viewBox="0 0 74.634146 72.000000"
 preserveAspectRatio="xMidYMid meet">
<metadata>
Created by potrace 1.15, written by Peter Selinger 2001-2017
</metadata>
<g transform="translate(0.000000,72.000000) scale(0.087805,-0.087805)"
fill="#000000" stroke="none">
<path d="M362 658 c-19 -19 -14 -46 9 -53 30 -10 58 19 43 43 -14 22 -36 26
-52 10z"/>
<path d="M85 488 c-32 -18 -44 -40 -45 -78 0 -48 8 -57 87 -104 56 -34 69 -46
71 -71 10 -82 -106 -67 -144 19 -13 31 -13 31 -14 -26 l0 -56 64 -7 c97 -11
146 22 146 98 0 39 -23 64 -90 97 -61 30 -80 49 -80 77 0 15 9 27 25 35 37 17
76 0 97 -40 25 -51 28 -50 28 9 l0 54 -63 2 c-34 1 -71 -3 -82 -9z"/>
<path d="M340 477 c-42 -19 -43 -21 -19 -24 23 -4 27 -10 33 -50 16 -116 4
-210 -28 -223 -14 -6 5 -9 59 -9 44 1 73 3 65 6 -35 12 -40 35 -40 180 0 108
-3 143 -12 142 -7 0 -33 -10 -58 -22z"/>
<path d="M511 475 c24 -13 109 -124 109 -143 0 -14 -97 -139 -117 -151 -14 -8
-4 -10 41 -11 52 0 57 2 42 13 -22 16 -16 39 23 86 33 40 41 37 78 -26 26 -44
26 -46 8 -59 -16 -12 -9 -14 61 -14 69 1 76 2 56 13 -20 12 -132 158 -132 173
0 16 75 106 99 119 25 14 24 14 -32 15 -53 0 -56 -1 -46 -18 10 -15 7 -26 -13
-56 l-26 -37 -22 37 c-19 30 -21 40 -12 55 12 18 8 19 -65 19 -72 -1 -76 -2
-52 -15z"/>
</g>
</svg>
