<?xml version="1.0" standalone="no"?>
<!DOCTYPE svg PUBLIC "-//W3C//DTD SVG 20010904//EN"
 "http://www.w3.org/TR/2001/REC-SVG-20010904/DTD/svg10.dtd">
<svg version="1.0" xmlns="http://www.w3.org/2000/svg"
 width="243.219512pt" height="72.000000pt" viewBox="0 0 243.219512 72.000000"
 preserveAspectRatio="xMidYMid meet">
<metadata>
Created by potrace 1.15, written by Peter Selinger 2001-2017
</metadata>
<g transform="translate(0.000000,72.000000) scale(0.087805,-0.087805)"
fill="#000000" stroke="none">
<path d="M2000 648 c-43 -20 -44 -21 -20 -27 23 -6 25 -12 28 -75 3 -66 3 -67
-19 -55 -12 6 -41 9 -66 6 -146 -16 -190 -259 -59 -321 44 -21 63 -20 109 4
l37 20 0 -21 c0 -22 9 -21 79 9 35 15 35 15 11 22 l-25 6 -3 227 c-2 172 -5
227 -15 226 -6 0 -32 -10 -57 -21z m-20 -188 c27 -27 31 -51 28 -150 -3 -80
-4 -85 -30 -99 -75 -42 -146 63 -124 182 14 73 83 110 126 67z"/>
<path d="M109 635 c-39 -21 -59 -59 -59 -109 0 -57 27 -87 138 -150 116 -67
139 -110 87 -161 -45 -46 -152 -26 -188 34 -9 16 -17 36 -17 44 0 9 -5 19 -10
22 -6 4 -10 -24 -10 -76 0 -79 1 -81 18 -65 17 15 23 15 62 1 115 -41 230 17
230 117 0 50 -30 89 -99 128 -77 43 -140 89 -155 113 -14 23 10 67 46 84 55
27 141 -22 154 -86 12 -60 24 -41 24 38 0 45 -4 81 -9 81 -5 0 -11 -5 -13 -12
-4 -10 -13 -10 -45 0 -53 16 -122 15 -154 -3z"/>
<path d="M511 482 c-56 -28 -75 -63 -79 -145 -2 -59 1 -78 17 -105 63 -100
192 -91 238 17 8 18 11 36 7 40 -4 3 -9 0 -12 -8 -3 -8 -15 -25 -28 -38 -63
-62 -174 3 -174 103 0 24 0 24 110 24 124 0 131 6 87 71 -40 59 -101 75 -166
41z m91 -29 c8 -10 18 -28 21 -40 5 -22 3 -23 -69 -23 -82 0 -90 8 -53 54 25
31 77 36 101 9z"/>
<path d="M831 483 c-53 -26 -83 -81 -83 -151 0 -64 15 -103 55 -140 53 -50
146 -33 187 33 32 53 25 70 -13 29 -26 -29 -40 -36 -70 -36 -47 0 -71 20 -93
78 -29 75 -2 160 55 179 29 9 58 -11 66 -44 8 -35 40 -50 62 -29 20 21 2 63
-36 83 -39 19 -87 19 -130 -2z"/>
<path d="M1453 482 c-45 -17 -56 -32 -24 -32 27 0 31 -18 31 -134 0 -103 -7
-127 -40 -139 -8 -3 23 -5 70 -5 49 0 75 3 60 7 -25 7 -25 9 -28 124 l-3 117
33 20 c41 25 53 25 78 0 19 -19 20 -31 18 -133 -3 -108 -4 -112 -28 -124 -22
-11 -15 -13 60 -13 75 0 82 2 60 13 -24 12 -25 17 -30 133 -5 131 -19 168 -64
180 -32 8 -59 -2 -96 -33 l-30 -25 0 31 c0 35 -7 37 -67 13z"/>
<path d="M2565 488 c-32 -18 -44 -40 -45 -78 0 -48 8 -57 87 -104 56 -34 69
-46 71 -71 10 -82 -106 -67 -144 19 -13 31 -13 31 -14 -26 l0 -56 64 -7 c97
-11 146 22 146 98 0 39 -23 64 -90 97 -61 30 -80 49 -80 77 0 15 9 27 25 35
37 17 76 0 97 -40 25 -51 28 -50 28 9 l0 54 -63 2 c-34 1 -71 -3 -82 -9z"/>
<path d="M1061 479 c33 -12 39 -38 39 -171 0 -92 2 -101 25 -123 34 -35 76
-33 118 5 19 17 37 30 41 30 3 0 6 -14 6 -31 0 -34 5 -34 79 -1 35 16 35 16
10 20 -23 3 -27 9 -33 49 -3 25 -6 88 -6 139 l0 94 -52 0 c-45 -1 -50 -2 -33
-12 32 -18 35 -28 35 -129 0 -86 -2 -98 -22 -117 -32 -29 -69 -36 -93 -18 -18
13 -20 28 -23 145 l-4 131 -56 -1 c-49 0 -53 -2 -31 -10z"/>
<path d="M2141 479 c33 -12 39 -38 39 -171 0 -92 2 -101 25 -123 34 -35 76
-33 118 5 19 17 37 30 41 30 3 0 6 -14 6 -31 0 -34 5 -34 79 -1 35 16 35 16
10 20 -23 3 -27 9 -33 49 -3 25 -6 88 -6 139 l0 94 -52 0 c-45 -1 -50 -2 -33
-12 32 -18 35 -28 35 -129 0 -86 -2 -98 -22 -117 -32 -29 -69 -36 -93 -18 -18
13 -20 28 -23 145 l-4 131 -56 -1 c-49 0 -53 -2 -31 -10z"/>
</g>
</svg>
