<?xml version="1.0" standalone="no"?>
<!DOCTYPE svg PUBLIC "-//W3C//DTD SVG 20010904//EN"
 "http://www.w3.org/TR/2001/REC-SVG-20010904/DTD/svg10.dtd">
<svg version="1.0" xmlns="http://www.w3.org/2000/svg"
 width="182.634146pt" height="72.000000pt" viewBox="0 0 182.634146 72.000000"
 preserveAspectRatio="xMidYMid meet">
<metadata>
Created by potrace 1.15, written by Peter Selinger 2001-2017
</metadata>
<g transform="translate(0.000000,72.000000) scale(0.087805,-0.087805)"
fill="#000000" stroke="none">
<path d="M161 653 c-37 -18 -70 -78 -71 -125 0 -24 -4 -28 -30 -28 -20 0 -30
-5 -30 -15 0 -10 10 -15 30 -15 l30 0 0 -130 0 -131 -32 -14 c-31 -13 -27 -14
67 -13 55 0 89 3 75 5 -47 9 -50 18 -50 154 l0 129 40 0 c29 0 40 4 40 15 0
11 -11 15 -40 15 l-40 0 0 51 c0 28 5 59 10 70 16 30 59 24 89 -12 18 -21 31
-28 44 -24 45 18 -8 85 -67 85 -17 0 -46 -8 -65 -17z"/>
<path d="M1272 658 c-19 -19 -14 -46 9 -53 30 -10 58 19 43 43 -14 22 -36 26
-52 10z"/>
<path d="M954 496 c-74 -32 -97 -117 -48 -175 l26 -31 -26 -31 c-30 -36 -32
-46 -10 -70 15 -17 14 -21 -15 -55 -18 -20 -31 -43 -29 -52 4 -24 86 -62 133
-62 101 0 185 56 185 122 0 57 -26 72 -134 76 -50 2 -95 7 -99 12 -5 4 -6 17
-2 29 5 18 14 21 58 21 92 0 143 48 134 126 -4 40 -3 43 21 46 47 6 38 28 -11
28 -24 0 -61 7 -80 15 -44 18 -63 18 -103 1z m76 -16 c10 -5 23 -24 29 -41 26
-74 3 -139 -48 -139 -41 0 -64 31 -69 94 -4 45 -1 57 17 75 23 23 43 26 71 11z
m109 -335 c12 -12 12 -17 -2 -39 -31 -47 -155 -59 -214 -21 -27 18 -29 32 -7
64 16 22 20 22 113 16 58 -4 102 -12 110 -20z"/>
<path d="M350 481 c-74 -40 -105 -156 -63 -238 27 -51 63 -75 120 -80 39 -4
55 0 82 19 57 38 75 71 79 143 4 57 1 70 -21 104 -45 67 -127 89 -197 52z
m110 -29 c51 -52 65 -177 26 -236 -24 -37 -86 -37 -115 0 -29 37 -44 99 -39
163 4 44 10 59 32 78 36 30 61 29 96 -5z"/>
<path d="M663 481 c-51 -20 -63 -31 -35 -31 29 0 33 -23 30 -150 -3 -100 -4
-105 -28 -117 -22 -11 -15 -13 60 -13 75 0 82 2 60 13 -24 12 -25 17 -28 118
-2 92 0 109 17 130 17 21 21 22 44 10 31 -17 57 -8 57 18 0 48 -63 46 -102 -3
l-18 -21 0 27 c0 36 -8 39 -57 19z"/>
<path d="M1250 477 c-42 -19 -43 -21 -19 -24 23 -4 27 -10 33 -50 16 -116 4
-210 -28 -223 -14 -6 5 -9 59 -9 44 1 73 3 65 6 -35 12 -40 35 -40 180 0 108
-3 143 -12 142 -7 0 -33 -10 -58 -22z"/>
<path d="M1861 482 c-56 -28 -75 -63 -79 -145 -2 -59 1 -78 17 -105 63 -100
192 -91 238 17 8 18 11 36 7 40 -4 3 -9 0 -12 -8 -3 -8 -15 -25 -28 -38 -63
-62 -174 3 -174 103 0 24 0 24 110 24 124 0 131 6 87 71 -40 59 -101 75 -166
41z m91 -29 c8 -10 18 -28 21 -40 5 -22 3 -23 -69 -23 -82 0 -90 8 -53 54 25
31 77 36 101 9z"/>
<path d="M1421 467 c17 -14 48 -74 85 -160 32 -76 62 -140 66 -143 5 -3 16 12
24 33 85 205 110 257 127 274 21 19 20 19 -34 19 -41 -1 -50 -3 -36 -11 9 -5
17 -16 17 -24 0 -20 -71 -195 -79 -195 -7 0 -81 179 -81 198 0 7 10 17 23 22
16 6 0 9 -58 9 l-80 1 26 -23z"/>
</g>
</svg>
