<?xml version="1.0" standalone="no"?>
<!DOCTYPE svg PUBLIC "-//W3C//DTD SVG 20010904//EN"
 "http://www.w3.org/TR/2001/REC-SVG-20010904/DTD/svg10.dtd">
<svg version="1.0" xmlns="http://www.w3.org/2000/svg"
 width="250.243902pt" height="72.000000pt" viewBox="0 0 250.243902 72.000000"
 preserveAspectRatio="xMidYMid meet">
<metadata>
Created by potrace 1.15, written by Peter Selinger 2001-2017
</metadata>
<g transform="translate(0.000000,72.000000) scale(0.087805,-0.087805)"
fill="#000000" stroke="none">
<path d="M1673 652 c-53 -22 -63 -32 -30 -32 l27 0 0 -215 c0 -214 0 -216 -22
-225 -16 -6 2 -9 62 -8 47 0 76 2 65 5 -42 10 -45 26 -45 265 0 125 -3 228 -7
227 -5 0 -27 -8 -50 -17z"/>
<path d="M2720 648 c-43 -20 -44 -21 -20 -27 23 -6 25 -12 28 -75 3 -66 3 -67
-19 -55 -12 6 -41 9 -66 6 -146 -16 -190 -259 -59 -321 44 -21 63 -20 109 4
l37 20 0 -21 c0 -22 9 -21 79 9 35 15 35 15 11 22 l-25 6 -3 227 c-2 172 -5
227 -15 226 -6 0 -32 -10 -57 -21z m-20 -188 c27 -27 31 -51 28 -150 -3 -80
-4 -85 -30 -99 -75 -42 -146 63 -124 182 14 73 83 110 126 67z"/>
<path d="M161 624 c-77 -39 -124 -113 -129 -204 -5 -88 10 -133 64 -186 73
-74 209 -95 321 -49 l42 17 3 101 c3 97 4 102 28 114 22 11 13 13 -70 13 l-95
0 33 -20 33 -20 -3 -92 -3 -92 -47 -14 c-127 -35 -228 64 -228 223 0 46 7 84
19 110 59 131 236 142 297 18 l19 -38 3 40 c5 54 -7 113 -18 95 -7 -12 -17
-12 -55 -2 -77 20 -154 15 -214 -14z"/>
<path d="M1004 496 c-74 -32 -97 -117 -48 -175 l26 -31 -26 -31 c-30 -36 -32
-46 -10 -70 15 -17 14 -21 -15 -55 -18 -20 -31 -43 -29 -52 4 -24 86 -62 133
-62 101 0 185 56 185 122 0 57 -26 72 -134 76 -50 2 -95 7 -99 12 -5 4 -6 17
-2 29 5 18 14 21 58 21 92 0 143 48 134 126 -4 40 -3 43 21 46 47 6 38 28 -11
28 -24 0 -61 7 -80 15 -44 18 -63 18 -103 1z m76 -16 c10 -5 23 -24 29 -41 26
-74 3 -139 -48 -139 -41 0 -64 31 -69 94 -4 45 -1 57 17 75 23 23 43 26 71 11z
m109 -335 c12 -12 12 -17 -2 -39 -31 -47 -155 -59 -214 -21 -27 18 -29 32 -7
64 16 22 20 22 113 16 58 -4 102 -12 110 -20z"/>
<path d="M630 481 c-74 -40 -105 -156 -63 -238 27 -51 63 -75 120 -80 39 -4
55 0 82 19 57 38 75 71 79 143 4 57 1 70 -21 104 -45 67 -127 89 -197 52z
m110 -29 c51 -52 65 -177 26 -236 -24 -37 -86 -37 -115 0 -29 37 -44 99 -39
163 4 44 10 59 32 78 36 30 61 29 96 -5z"/>
<path d="M1880 478 c-37 -25 -49 -60 -30 -83 18 -22 50 -1 50 33 0 33 16 52
45 52 30 0 55 -31 55 -68 0 -28 -5 -33 -71 -63 -39 -18 -77 -42 -85 -53 -22
-32 -18 -89 9 -114 31 -29 66 -28 111 3 45 30 44 30 48 3 4 -33 39 -34 77 -3
17 15 31 31 31 37 0 6 -6 6 -15 -2 -8 -7 -22 -10 -30 -6 -12 4 -15 27 -15 120
0 141 -9 157 -91 163 -45 4 -60 1 -89 -19z m120 -183 c0 -62 -1 -65 -31 -81
-45 -23 -79 -7 -79 39 0 41 14 59 65 86 22 11 41 20 43 21 1 0 2 -29 2 -65z"/>
<path d="M2173 482 c-45 -17 -56 -32 -24 -32 27 0 31 -18 31 -134 0 -103 -7
-127 -40 -139 -8 -3 23 -5 70 -5 49 0 75 3 60 7 -25 7 -25 9 -28 124 l-3 117
33 20 c41 25 53 25 78 0 19 -19 20 -31 18 -133 -3 -108 -4 -112 -28 -124 -22
-11 -15 -13 60 -13 75 0 82 2 60 13 -24 12 -25 17 -30 133 -5 131 -19 168 -64
180 -32 8 -59 -2 -96 -33 l-30 -25 0 31 c0 35 -7 37 -67 13z"/>
<path d="M1230 35 c0 -13 28 -15 190 -15 162 0 190 2 190 15 0 13 -28 15 -190
15 -162 0 -190 -2 -190 -15z"/>
</g>
</svg>
