<?xml version="1.0" standalone="no"?>
<!DOCTYPE svg PUBLIC "-//W3C//DTD SVG 20010904//EN"
 "http://www.w3.org/TR/2001/REC-SVG-20010904/DTD/svg10.dtd">
<svg version="1.0" xmlns="http://www.w3.org/2000/svg"
 width="113.268293pt" height="72.000000pt" viewBox="0 0 113.268293 72.000000"
 preserveAspectRatio="xMidYMid meet">
<metadata>
Created by potrace 1.15, written by Peter Selinger 2001-2017
</metadata>
<g transform="translate(0.000000,72.000000) scale(0.087805,-0.087805)"
fill="#000000" stroke="none">
<path d="M53 652 c-48 -18 -54 -29 -20 -34 l22 -3 0 -210 0 -209 -25 -13 c-22
-11 -15 -13 60 -12 69 0 80 2 58 11 l-28 10 0 113 c0 111 1 114 26 134 35 28
70 27 89 -3 12 -18 15 -47 13 -132 -3 -104 -4 -109 -28 -121 -22 -11 -15 -13
60 -12 67 0 79 3 58 10 l-26 10 -4 124 c-3 107 -6 127 -24 152 -32 42 -82 43
-128 3 l-36 -32 0 116 c0 128 2 125 -67 98z"/>
<path d="M793 652 c-53 -22 -63 -32 -30 -32 l27 0 0 -215 c0 -214 0 -216 -22
-225 -16 -6 2 -9 62 -8 47 0 76 2 65 5 -42 10 -45 26 -45 265 0 125 -3 228 -7
227 -5 0 -27 -8 -50 -17z"/>
<path d="M470 481 c-74 -40 -105 -156 -63 -238 27 -51 63 -75 120 -80 39 -4
55 0 82 19 57 38 75 71 79 143 4 57 1 70 -21 104 -45 67 -127 89 -197 52z
m110 -29 c51 -52 65 -177 26 -236 -24 -37 -86 -37 -115 0 -29 37 -44 99 -39
163 4 44 10 59 32 78 36 30 61 29 96 -5z"/>
<path d="M948 463 c20 -18 52 -72 90 -153 57 -122 58 -126 44 -160 -24 -59
-39 -70 -87 -63 -38 5 -44 3 -50 -16 -15 -48 36 -66 92 -31 38 23 50 45 133
250 36 90 73 164 87 178 l24 22 -58 0 c-44 -1 -54 -3 -40 -11 24 -14 22 -26
-20 -130 l-36 -92 -43 84 c-47 92 -53 123 -26 138 12 8 -4 10 -63 11 l-79 0
32 -27z"/>
</g>
</svg>
