<?xml version="1.0" standalone="no"?>
<!DOCTYPE svg PUBLIC "-//W3C//DTD SVG 20010904//EN"
 "http://www.w3.org/TR/2001/REC-SVG-20010904/DTD/svg10.dtd">
<svg version="1.0" xmlns="http://www.w3.org/2000/svg"
 width="201.073171pt" height="72.000000pt" viewBox="0 0 201.073171 72.000000"
 preserveAspectRatio="xMidYMid meet">
<metadata>
Created by potrace 1.15, written by Peter Selinger 2001-2017
</metadata>
<g transform="translate(0.000000,72.000000) scale(0.087805,-0.087805)"
fill="#000000" stroke="none">
<path d="M40 627 l35 -12 0 -210 0 -210 -35 -12 c-30 -10 -5 -12 155 -12 l191
-1 13 48 c24 85 24 89 3 57 -39 -60 -58 -70 -143 -74 -53 -2 -84 1 -94 9 -12
10 -15 47 -15 200 0 203 0 203 57 220 19 6 -8 8 -87 9 -102 0 -111 -2 -80 -12z"/>
<path d="M520 478 c-37 -25 -49 -60 -30 -83 18 -22 50 -1 50 33 0 33 16 52 45
52 30 0 55 -31 55 -68 0 -28 -5 -33 -71 -63 -39 -18 -77 -42 -85 -53 -22 -32
-18 -89 9 -114 31 -29 66 -28 111 3 45 30 44 30 48 3 4 -33 39 -34 77 -3 17
15 31 31 31 37 0 6 -6 6 -15 -2 -8 -7 -22 -10 -30 -6 -12 4 -15 27 -15 120 0
141 -9 157 -91 163 -45 4 -60 1 -89 -19z m120 -183 c0 -62 -1 -65 -31 -81 -45
-23 -79 -7 -79 39 0 41 14 59 65 86 22 11 41 20 43 21 1 0 2 -29 2 -65z"/>
<path d="M1160 478 c-37 -25 -49 -60 -30 -83 18 -22 50 -1 50 33 0 33 16 52
45 52 30 0 55 -31 55 -68 0 -28 -5 -33 -71 -63 -39 -18 -77 -42 -85 -53 -22
-32 -18 -89 9 -114 31 -29 66 -28 111 3 45 30 44 30 48 3 4 -33 39 -34 77 -3
17 15 31 31 31 37 0 6 -6 6 -15 -2 -8 -7 -22 -10 -30 -6 -12 4 -15 27 -15 120
0 141 -9 157 -91 163 -45 4 -60 1 -89 -19z m120 -183 c0 -62 -1 -65 -31 -81
-45 -23 -79 -7 -79 39 0 41 14 59 65 86 22 11 41 20 43 21 1 0 2 -29 2 -65z"/>
<path d="M1463 481 c-51 -20 -63 -31 -35 -31 29 0 33 -23 30 -150 -3 -100 -4
-105 -28 -117 -22 -11 -15 -13 60 -13 75 0 82 2 60 13 -24 12 -25 17 -28 118
-2 92 0 109 17 130 17 21 21 22 44 10 32 -17 57 -8 57 19 0 21 16 26 40 10 11
-7 16 -40 20 -140 5 -123 7 -133 29 -151 34 -28 75 -24 114 11 19 16 37 30 41
30 3 0 6 -14 6 -31 0 -34 5 -34 79 -1 35 16 35 16 10 20 -23 3 -27 9 -33 49
-3 25 -6 88 -6 139 l0 94 -52 0 c-45 -1 -50 -2 -33 -12 32 -18 35 -28 35 -129
0 -86 -2 -98 -22 -117 -32 -29 -69 -36 -93 -18 -18 13 -20 28 -23 146 l-4 131
-62 -2 c-35 -1 -68 1 -74 5 -15 9 -52 -10 -74 -38 l-18 -21 0 27 c0 36 -8 39
-57 19z"/>
<path d="M2085 488 c-32 -18 -44 -40 -45 -78 0 -48 8 -57 87 -104 56 -34 69
-46 71 -71 10 -82 -106 -67 -144 19 -13 31 -13 31 -14 -26 l0 -56 64 -7 c97
-11 146 22 146 98 0 39 -23 64 -90 97 -61 30 -80 49 -80 77 0 15 9 27 25 35
37 17 76 0 97 -40 25 -51 28 -50 28 9 l0 54 -63 2 c-34 1 -71 -3 -82 -9z"/>
<path d="M800 443 l1 -48 13 31 c8 18 24 34 37 37 32 9 129 9 129 0 0 -3 -44
-65 -98 -137 -54 -72 -101 -137 -106 -143 -6 -10 25 -13 138 -13 l146 0 -1 53
c-1 50 -1 51 -10 19 -6 -21 -19 -36 -35 -42 -29 -11 -154 -14 -154 -3 0 4 47
69 105 144 58 76 105 140 105 143 0 3 -61 6 -135 6 l-135 0 0 -47z"/>
</g>
</svg>
