<?xml version="1.0" standalone="no"?>
<!DOCTYPE svg PUBLIC "-//W3C//DTD SVG 20010904//EN"
 "http://www.w3.org/TR/2001/REC-SVG-20010904/DTD/svg10.dtd">
<svg version="1.0" xmlns="http://www.w3.org/2000/svg"
 width="116.780488pt" height="72.000000pt" viewBox="0 0 116.780488 72.000000"
 preserveAspectRatio="xMidYMid meet">
<metadata>
Created by potrace 1.15, written by Peter Selinger 2001-2017
</metadata>
<g transform="translate(0.000000,72.000000) scale(0.087805,-0.087805)"
fill="#000000" stroke="none">
<path d="M1000 648 c-43 -20 -44 -21 -20 -27 23 -6 25 -12 28 -75 3 -66 3 -67
-19 -55 -12 6 -41 9 -66 6 -146 -16 -190 -259 -59 -321 44 -21 63 -20 109 4
l37 20 0 -21 c0 -22 9 -21 79 9 35 15 35 15 11 22 l-25 6 -3 227 c-2 172 -5
227 -15 226 -6 0 -32 -10 -57 -21z m-20 -188 c27 -27 31 -51 28 -150 -3 -80
-4 -85 -30 -99 -75 -42 -146 63 -124 182 14 73 83 110 126 67z"/>
<path d="M1202 658 c-19 -19 -14 -46 9 -53 30 -10 58 19 43 43 -14 22 -36 26
-52 10z"/>
<path d="M109 635 c-39 -21 -59 -59 -59 -109 0 -57 27 -87 138 -150 116 -67
139 -110 87 -161 -45 -46 -152 -26 -188 34 -9 16 -17 36 -17 44 0 9 -5 19 -10
22 -6 4 -10 -24 -10 -76 0 -79 1 -81 18 -65 17 15 23 15 62 1 115 -41 230 17
230 117 0 50 -30 89 -99 128 -77 43 -140 89 -155 113 -14 23 10 67 46 84 55
27 141 -22 154 -86 12 -60 24 -41 24 38 0 45 -4 81 -9 81 -5 0 -11 -5 -13 -12
-4 -10 -13 -10 -45 0 -53 16 -122 15 -154 -3z"/>
<path d="M510 481 c-74 -40 -105 -156 -63 -238 27 -51 63 -75 120 -80 39 -4
55 0 82 19 57 38 75 71 79 143 4 57 1 70 -21 104 -45 67 -127 89 -197 52z
m110 -29 c51 -52 65 -177 26 -236 -24 -37 -86 -37 -115 0 -29 37 -44 99 -39
163 4 44 10 59 32 78 36 30 61 29 96 -5z"/>
<path d="M1180 477 c-42 -19 -43 -21 -19 -24 23 -4 27 -10 33 -50 16 -116 4
-210 -28 -223 -14 -6 5 -9 59 -9 44 1 73 3 65 6 -35 12 -40 35 -40 180 0 108
-3 143 -12 142 -7 0 -33 -10 -58 -22z"/>
</g>
</svg>
