<?xml version="1.0" standalone="no"?>
<!DOCTYPE svg PUBLIC "-//W3C//DTD SVG 20010904//EN"
 "http://www.w3.org/TR/2001/REC-SVG-20010904/DTD/svg10.dtd">
<svg version="1.0" xmlns="http://www.w3.org/2000/svg"
 width="155.414634pt" height="72.000000pt" viewBox="0 0 155.414634 72.000000"
 preserveAspectRatio="xMidYMid meet">
<metadata>
Created by potrace 1.15, written by Peter Selinger 2001-2017
</metadata>
<g transform="translate(0.000000,72.000000) scale(0.087805,-0.087805)"
fill="#000000" stroke="none">
<path d="M1453 652 c-48 -18 -54 -29 -20 -34 l22 -3 0 -210 0 -209 -25 -13
c-22 -11 -15 -13 60 -12 69 0 80 2 58 11 l-28 10 0 113 c0 111 1 114 26 134
35 28 70 27 89 -3 12 -18 15 -47 13 -132 -3 -104 -4 -109 -28 -121 -22 -11
-15 -13 60 -12 67 0 79 3 58 10 l-26 10 -4 124 c-3 107 -6 127 -24 152 -32 42
-82 43 -128 3 l-36 -32 0 116 c0 128 2 125 -67 98z"/>
<path d="M50 478 c-43 -20 -44 -21 -20 -27 25 -7 25 -7 25 -131 0 -123 0 -125
-25 -137 -22 -11 -15 -13 60 -13 75 0 82 2 60 13 -24 12 -25 15 -25 127 l0
114 33 19 c71 42 102 -1 102 -140 0 -86 -11 -120 -42 -126 -13 -2 18 -4 67 -4
50 -1 81 1 70 4 -37 9 -45 32 -45 133 0 88 2 98 23 118 13 12 37 24 54 28 52
10 64 -21 61 -152 -3 -104 -4 -109 -28 -121 -22 -11 -15 -13 60 -13 75 0 82 2
60 13 -24 12 -25 16 -30 141 -5 125 -6 128 -33 152 -15 13 -39 24 -53 24 -29
0 -75 -22 -93 -44 -12 -14 -16 -12 -41 14 -41 44 -90 39 -147 -13 l-23 -20 0
31 c0 37 -8 38 -70 10z"/>
<path d="M983 481 c-51 -20 -63 -31 -35 -31 29 0 33 -23 30 -150 -3 -100 -4
-105 -28 -117 -22 -11 -15 -13 60 -13 75 0 82 2 60 13 -24 12 -25 17 -28 118
-2 92 0 109 17 130 17 22 21 22 46 9 21 -11 30 -12 45 -2 31 19 59 15 65 -10
3 -13 5 -70 3 -128 -3 -100 -4 -105 -28 -117 -22 -11 -15 -13 60 -13 75 0 82
2 60 13 -24 12 -25 17 -28 118 -2 92 0 109 17 130 17 21 21 22 44 10 31 -17
57 -8 57 18 0 48 -63 46 -102 -3 l-18 -21 0 26 c0 38 -7 40 -63 18 -34 -13
-53 -17 -55 -10 -2 6 -12 16 -23 21 -22 13 -55 -1 -81 -34 l-18 -21 0 27 c0
36 -8 39 -57 19z"/>
<path d="M588 463 c20 -18 52 -72 90 -153 57 -122 58 -126 44 -160 -24 -59
-39 -70 -87 -63 -38 5 -44 3 -50 -16 -15 -48 36 -66 92 -31 38 23 50 45 133
250 36 90 73 164 87 178 l24 22 -58 0 c-44 -1 -54 -3 -40 -11 24 -14 22 -26
-20 -130 l-36 -92 -43 84 c-47 92 -53 123 -26 138 12 8 -4 10 -63 11 l-79 0
32 -27z"/>
</g>
</svg>
