<?xml version="1.0" standalone="no"?>
<!DOCTYPE svg PUBLIC "-//W3C//DTD SVG 20010904//EN"
 "http://www.w3.org/TR/2001/REC-SVG-20010904/DTD/svg10.dtd">
<svg version="1.0" xmlns="http://www.w3.org/2000/svg"
 width="102.731707pt" height="72.000000pt" viewBox="0 0 102.731707 72.000000"
 preserveAspectRatio="xMidYMid meet">
<metadata>
Created by potrace 1.15, written by Peter Selinger 2001-2017
</metadata>
<g transform="translate(0.000000,72.000000) scale(0.087805,-0.087805)"
fill="#000000" stroke="none">
<path d="M1040 648 c-43 -20 -44 -21 -20 -27 23 -6 25 -12 28 -75 3 -66 3 -67
-19 -55 -12 6 -41 9 -66 6 -146 -16 -190 -259 -59 -321 44 -21 63 -20 109 4
l37 20 0 -21 c0 -22 9 -21 79 9 35 15 35 15 11 22 l-25 6 -3 227 c-2 172 -5
227 -15 226 -6 0 -32 -10 -57 -21z m-20 -188 c27 -27 31 -51 28 -150 -3 -80
-4 -85 -30 -99 -75 -42 -146 63 -124 182 14 73 83 110 126 67z"/>
<path d="M46 626 c17 -8 34 -21 38 -31 3 -9 6 -94 6 -188 0 -186 -7 -216 -50
-228 -14 -4 22 -7 80 -7 58 1 95 3 83 5 -47 9 -53 35 -53 218 0 93 3 181 7
194 3 13 19 29 37 37 29 12 23 13 -74 13 -97 0 -103 -1 -74 -13z"/>
<path d="M303 481 c-51 -20 -63 -31 -35 -31 29 0 33 -23 30 -150 -3 -100 -4
-105 -28 -117 -22 -11 -15 -13 60 -13 75 0 82 2 60 13 -24 12 -25 17 -28 118
-2 92 0 109 17 130 17 21 21 22 44 10 31 -17 57 -8 57 18 0 48 -63 46 -102 -3
l-18 -21 0 27 c0 36 -8 39 -57 19z"/>
<path d="M560 478 c-37 -25 -49 -60 -30 -83 18 -22 50 -1 50 33 0 33 16 52 45
52 30 0 55 -31 55 -68 0 -28 -5 -33 -71 -63 -39 -18 -77 -42 -85 -53 -22 -32
-18 -89 9 -114 31 -29 66 -28 111 3 45 30 44 30 48 3 4 -33 39 -34 77 -3 17
15 31 31 31 37 0 6 -6 6 -15 -2 -8 -7 -22 -10 -30 -6 -12 4 -15 27 -15 120 0
141 -9 157 -91 163 -45 4 -60 1 -89 -19z m120 -183 c0 -62 -1 -65 -31 -81 -45
-23 -79 -7 -79 39 0 41 14 59 65 86 22 11 41 20 43 21 1 0 2 -29 2 -65z"/>
</g>
</svg>
