<?xml version="1.0" standalone="no"?>
<!DOCTYPE svg PUBLIC "-//W3C//DTD SVG 20010904//EN"
 "http://www.w3.org/TR/2001/REC-SVG-20010904/DTD/svg10.dtd">
<svg version="1.0" xmlns="http://www.w3.org/2000/svg"
 width="130.829268pt" height="72.000000pt" viewBox="0 0 130.829268 72.000000"
 preserveAspectRatio="xMidYMid meet">
<metadata>
Created by potrace 1.15, written by Peter Selinger 2001-2017
</metadata>
<g transform="translate(0.000000,72.000000) scale(0.087805,-0.087805)"
fill="#000000" stroke="none">
<path d="M810 648 c-43 -20 -44 -21 -20 -27 l25 -7 0 -209 0 -209 -25 -13
c-22 -11 -15 -13 60 -12 50 1 75 4 60 8 -24 6 -25 11 -28 86 l-3 79 55 -70
c57 -71 65 -89 44 -97 -7 -3 23 -6 67 -6 78 -1 79 0 50 15 -16 8 -59 51 -94
95 l-64 80 48 49 c27 27 67 56 89 64 l41 14 -74 1 c-66 1 -72 -1 -60 -15 11
-13 4 -23 -44 -72 l-57 -57 0 163 c0 123 -3 162 -12 161 -7 0 -33 -10 -58 -21z"/>
<path d="M109 635 c-39 -21 -59 -59 -59 -109 0 -57 27 -87 138 -150 116 -67
139 -110 87 -161 -45 -46 -152 -26 -188 34 -9 16 -17 36 -17 44 0 9 -5 19 -10
22 -6 4 -10 -24 -10 -76 0 -79 1 -81 18 -65 17 15 23 15 62 1 115 -41 230 17
230 117 0 50 -30 89 -99 128 -77 43 -140 89 -155 113 -14 23 10 67 46 84 55
27 141 -22 154 -86 12 -60 24 -41 24 38 0 45 -4 81 -9 81 -5 0 -11 -5 -13 -12
-4 -10 -13 -10 -45 0 -53 16 -122 15 -154 -3z"/>
<path d="M510 481 c-74 -40 -105 -156 -63 -238 27 -51 63 -75 120 -80 39 -4
55 0 82 19 57 38 75 71 79 143 4 57 1 70 -21 104 -45 67 -127 89 -197 52z
m110 -29 c51 -52 65 -177 26 -236 -24 -37 -86 -37 -115 0 -29 37 -44 99 -39
163 4 44 10 59 32 78 36 30 61 29 96 -5z"/>
<path d="M1230 481 c-74 -40 -105 -156 -63 -238 27 -51 63 -75 120 -80 39 -4
55 0 82 19 57 38 75 71 79 143 4 57 1 70 -21 104 -45 67 -127 89 -197 52z
m110 -29 c51 -52 65 -177 26 -236 -24 -37 -86 -37 -115 0 -29 37 -44 99 -39
163 4 44 10 59 32 78 36 30 61 29 96 -5z"/>
</g>
</svg>
