<?xml version="1.0" standalone="no"?>
<!DOCTYPE svg PUBLIC "-//W3C//DTD SVG 20010904//EN"
 "http://www.w3.org/TR/2001/REC-SVG-20010904/DTD/svg10.dtd">
<svg version="1.0" xmlns="http://www.w3.org/2000/svg"
 width="348.585366pt" height="72.000000pt" viewBox="0 0 348.585366 72.000000"
 preserveAspectRatio="xMidYMid meet">
<metadata>
Created by potrace 1.15, written by Peter Selinger 2001-2017
</metadata>
<g transform="translate(0.000000,72.000000) scale(0.087805,-0.087805)"
fill="#000000" stroke="none">
<path d="M453 652 c-48 -18 -54 -29 -20 -34 l22 -3 0 -210 0 -209 -25 -13
c-22 -11 -15 -13 60 -12 69 0 80 2 58 11 l-28 10 0 113 c0 111 1 114 26 134
35 28 70 27 89 -3 12 -18 15 -47 13 -132 -3 -104 -4 -109 -28 -121 -22 -11
-15 -13 60 -12 67 0 79 3 58 10 l-26 10 -4 124 c-3 107 -6 127 -24 152 -32 42
-82 43 -128 3 l-36 -32 0 116 c0 128 2 125 -67 98z"/>
<path d="M2933 652 c-48 -18 -54 -29 -20 -34 l22 -3 0 -210 0 -209 -25 -13
c-22 -11 -15 -13 60 -12 69 0 80 2 58 11 l-28 10 0 113 c0 111 1 114 26 134
35 28 70 27 89 -3 12 -18 15 -47 13 -132 -3 -104 -4 -109 -28 -121 -22 -11
-15 -13 60 -12 67 0 79 3 58 10 l-26 10 -4 124 c-3 107 -6 127 -24 152 -32 42
-82 43 -128 3 l-36 -32 0 116 c0 128 2 125 -67 98z"/>
<path d="M3640 648 c-43 -20 -44 -21 -20 -27 l25 -7 3 -206 2 -205 38 -16 c71
-31 131 -26 177 14 50 44 65 78 65 147 0 127 -102 194 -185 121 l-35 -31 0
116 c0 129 2 127 -70 94z m197 -222 c24 -21 28 -32 31 -92 2 -56 -1 -75 -17
-101 -26 -41 -62 -51 -107 -30 l-34 17 0 100 c0 98 0 100 28 114 39 22 67 19
99 -8z"/>
<path d="M109 635 c-39 -21 -59 -59 -59 -109 0 -57 27 -87 138 -150 116 -67
139 -110 87 -161 -45 -46 -152 -26 -188 34 -9 16 -17 36 -17 44 0 9 -5 19 -10
22 -6 4 -10 -24 -10 -76 0 -79 1 -81 18 -65 17 15 23 15 62 1 115 -41 230 17
230 117 0 50 -30 89 -99 128 -77 43 -140 89 -155 113 -14 23 10 67 46 84 55
27 141 -22 154 -86 12 -60 24 -41 24 38 0 45 -4 81 -9 81 -5 0 -11 -5 -13 -12
-4 -10 -13 -10 -45 0 -53 16 -122 15 -154 -3z"/>
<path d="M2100 627 l35 -12 0 -210 c0 -189 -2 -210 -17 -213 -11 -2 -23 8 -33
28 -20 38 -58 39 -63 2 -8 -53 57 -79 118 -47 56 29 64 61 70 260 l5 180 35
12 c31 11 23 12 -75 12 -98 0 -106 -1 -75 -12z"/>
<path d="M871 482 c-56 -28 -75 -63 -79 -145 -2 -59 1 -78 17 -105 63 -100
192 -91 238 17 8 18 11 36 7 40 -4 3 -9 0 -12 -8 -3 -8 -15 -25 -28 -38 -63
-62 -174 3 -174 103 0 24 0 24 110 24 124 0 131 6 87 71 -40 59 -101 75 -166
41z m91 -29 c8 -10 18 -28 21 -40 5 -22 3 -23 -69 -23 -82 0 -90 8 -53 54 25
31 77 36 101 9z"/>
<path d="M1160 478 c-37 -25 -49 -60 -30 -83 18 -22 50 -1 50 33 0 33 16 52
45 52 30 0 55 -31 55 -68 0 -28 -5 -33 -71 -63 -39 -18 -77 -42 -85 -53 -22
-32 -18 -89 9 -114 31 -29 66 -28 111 3 45 30 44 30 48 3 4 -33 39 -34 77 -3
17 15 31 31 31 37 0 6 -6 6 -15 -2 -8 -7 -22 -10 -30 -6 -12 4 -15 27 -15 120
0 141 -9 157 -91 163 -45 4 -60 1 -89 -19z m120 -183 c0 -62 -1 -65 -31 -81
-45 -23 -79 -7 -79 39 0 41 14 59 65 86 22 11 41 20 43 21 1 0 2 -29 2 -65z"/>
<path d="M1463 481 c-51 -20 -63 -31 -35 -31 29 0 33 -23 30 -150 -3 -100 -4
-105 -28 -117 -22 -11 -15 -13 60 -13 75 0 82 2 60 13 -24 12 -25 17 -28 118
-2 92 0 109 17 130 17 21 21 22 44 10 31 -17 57 -8 57 18 0 48 -63 46 -102 -3
l-18 -21 0 27 c0 36 -8 39 -57 19z"/>
<path d="M2360 478 c-37 -25 -49 -60 -30 -83 18 -22 50 -1 50 33 0 33 16 52
45 52 30 0 55 -31 55 -68 0 -28 -5 -33 -71 -63 -39 -18 -77 -42 -85 -53 -22
-32 -18 -89 9 -114 31 -29 66 -28 111 3 45 30 44 30 48 3 4 -33 39 -34 77 -3
17 15 31 31 31 37 0 6 -6 6 -15 -2 -8 -7 -22 -10 -30 -6 -12 4 -15 27 -15 120
0 141 -9 157 -91 163 -45 4 -60 1 -89 -19z m120 -183 c0 -62 -1 -65 -31 -81
-45 -23 -79 -7 -79 39 0 41 14 59 65 86 22 11 41 20 43 21 1 0 2 -29 2 -65z"/>
<path d="M2685 488 c-32 -18 -44 -40 -45 -78 0 -48 8 -57 87 -104 56 -34 69
-46 71 -71 10 -82 -106 -67 -144 19 -13 31 -13 31 -14 -26 l0 -56 64 -7 c97
-11 146 22 146 98 0 39 -23 64 -90 97 -61 30 -80 49 -80 77 0 15 9 27 25 35
37 17 76 0 97 -40 25 -51 28 -50 28 9 l0 54 -63 2 c-34 1 -71 -3 -82 -9z"/>
<path d="M3261 479 c33 -12 39 -38 39 -171 0 -92 2 -101 25 -123 34 -35 76
-33 118 5 19 17 37 30 41 30 3 0 6 -14 6 -31 0 -34 5 -34 79 -1 35 16 35 16
10 20 -23 3 -27 9 -33 49 -3 25 -6 88 -6 139 l0 94 -52 0 c-45 -1 -50 -2 -33
-12 32 -18 35 -28 35 -129 0 -86 -2 -98 -22 -117 -32 -29 -69 -36 -93 -18 -18
13 -20 28 -23 145 l-4 131 -56 -1 c-49 0 -53 -2 -31 -10z"/>
<path d="M1630 35 c0 -13 28 -15 190 -15 162 0 190 2 190 15 0 13 -28 15 -190
15 -162 0 -190 -2 -190 -15z"/>
</g>
</svg>
