<?xml version="1.0" standalone="no"?>
<!DOCTYPE svg PUBLIC "-//W3C//DTD SVG 20010904//EN"
 "http://www.w3.org/TR/2001/REC-SVG-20010904/DTD/svg10.dtd">
<svg version="1.0" xmlns="http://www.w3.org/2000/svg"
 width="148.390244pt" height="72.000000pt" viewBox="0 0 148.390244 72.000000"
 preserveAspectRatio="xMidYMid meet">
<metadata>
Created by potrace 1.15, written by Peter Selinger 2001-2017
</metadata>
<g transform="translate(0.000000,72.000000) scale(0.087805,-0.087805)"
fill="#000000" stroke="none">
<path d="M873 652 c-53 -22 -63 -32 -30 -32 l27 0 0 -215 c0 -214 0 -216 -22
-225 -16 -6 2 -9 62 -8 47 0 76 2 65 5 -42 10 -45 26 -45 265 0 125 -3 228 -7
227 -5 0 -27 -8 -50 -17z"/>
<path d="M1373 652 c-48 -18 -54 -29 -20 -34 l22 -3 0 -210 0 -209 -25 -13
c-22 -11 -15 -13 60 -12 69 0 80 2 58 11 l-28 10 0 113 c0 111 1 114 26 134
35 28 70 27 89 -3 12 -18 15 -47 13 -132 -3 -104 -4 -109 -28 -121 -22 -11
-15 -13 60 -12 67 0 79 3 58 10 l-26 10 -4 124 c-3 107 -6 127 -24 152 -32 42
-82 43 -128 3 l-36 -32 0 116 c0 128 2 125 -67 98z"/>
<path d="M175 636 c-172 -75 -199 -343 -43 -439 60 -37 141 -46 202 -23 44 17
116 84 116 109 0 6 -12 -3 -27 -22 -31 -40 -94 -70 -144 -71 -56 0 -119 39
-146 90 -33 63 -33 184 1 257 61 129 218 123 289 -12 l16 -30 1 62 c0 34 -3
69 -6 78 -6 14 -8 14 -24 0 -15 -14 -21 -14 -53 0 -44 18 -141 19 -182 1z"/>
<path d="M560 478 c-37 -25 -49 -60 -30 -83 18 -22 50 -1 50 33 0 33 16 52 45
52 30 0 55 -31 55 -68 0 -28 -5 -33 -71 -63 -39 -18 -77 -42 -85 -53 -22 -32
-18 -89 9 -114 31 -29 66 -28 111 3 45 30 44 30 48 3 4 -33 39 -34 77 -3 17
15 31 31 31 37 0 6 -6 6 -15 -2 -8 -7 -22 -10 -30 -6 -12 4 -15 27 -15 120 0
141 -9 157 -91 163 -45 4 -60 1 -89 -19z m120 -183 c0 -62 -1 -65 -31 -81 -45
-23 -79 -7 -79 39 0 41 14 59 65 86 22 11 41 20 43 21 1 0 2 -29 2 -65z"/>
<path d="M1080 478 c-37 -25 -49 -60 -30 -83 18 -22 50 -1 50 33 0 33 16 52
45 52 30 0 55 -31 55 -68 0 -28 -5 -33 -71 -63 -39 -18 -77 -42 -85 -53 -22
-32 -18 -89 9 -114 31 -29 66 -28 111 3 45 30 44 30 48 3 4 -33 39 -34 77 -3
17 15 31 31 31 37 0 6 -6 6 -15 -2 -8 -7 -22 -10 -30 -6 -12 4 -15 27 -15 120
0 141 -9 157 -91 163 -45 4 -60 1 -89 -19z m120 -183 c0 -62 -1 -65 -31 -81
-45 -23 -79 -7 -79 39 0 41 14 59 65 86 22 11 41 20 43 21 1 0 2 -29 2 -65z"/>
</g>
</svg>
