<?xml version="1.0" standalone="no"?>
<!DOCTYPE svg PUBLIC "-//W3C//DTD SVG 20010904//EN"
 "http://www.w3.org/TR/2001/REC-SVG-20010904/DTD/svg10.dtd">
<svg version="1.0" xmlns="http://www.w3.org/2000/svg"
 width="197.560976pt" height="72.000000pt" viewBox="0 0 197.560976 72.000000"
 preserveAspectRatio="xMidYMid meet">
<metadata>
Created by potrace 1.15, written by Peter Selinger 2001-2017
</metadata>
<g transform="translate(0.000000,72.000000) scale(0.087805,-0.087805)"
fill="#000000" stroke="none">
<path d="M890 648 c-43 -20 -44 -21 -20 -27 l25 -7 0 -209 0 -209 -25 -13
c-22 -11 -15 -13 60 -12 50 1 75 4 60 8 -24 6 -25 11 -28 86 l-3 79 55 -70
c57 -71 65 -89 44 -97 -7 -3 61 -5 152 -5 91 0 154 3 140 7 -24 6 -25 11 -28
86 l-3 79 55 -70 c57 -71 65 -89 44 -97 -7 -3 23 -6 67 -6 78 -1 79 0 50 15
-16 8 -59 51 -94 95 l-64 80 48 49 c27 27 67 56 89 64 l41 14 -74 1 c-66 1
-72 -1 -60 -15 11 -13 4 -23 -44 -72 l-57 -57 0 163 c0 91 -4 162 -9 162 -5 0
-31 -10 -58 -21 -45 -20 -46 -22 -23 -28 l25 -7 3 -203 c2 -142 -1 -208 -9
-217 -17 -21 -72 -17 -97 6 -11 11 -47 52 -78 91 l-57 70 48 49 c27 27 67 56
89 64 l41 14 -74 1 c-66 1 -72 -1 -60 -15 11 -13 4 -23 -44 -72 l-57 -57 0
163 c0 123 -3 162 -12 161 -7 0 -33 -10 -58 -21z"/>
<path d="M40 627 l35 -12 0 -210 0 -210 -35 -12 c-31 -11 -23 -12 75 -12 98 0
106 1 75 12 l-35 12 -3 98 -3 97 111 0 110 0 0 -87 c0 -49 -4 -94 -9 -101 -4
-7 -21 -17 -37 -22 -21 -6 2 -8 81 -9 98 0 106 1 75 12 l-35 12 0 210 0 210
35 12 c31 11 23 12 -75 12 -79 -1 -102 -3 -81 -9 16 -5 33 -15 37 -22 5 -7 9
-52 9 -100 l0 -88 -110 0 -111 0 3 98 3 97 35 12 c31 11 23 12 -75 12 -98 0
-106 -1 -75 -12z"/>
<path d="M600 478 c-37 -25 -49 -60 -30 -83 18 -22 50 -1 50 33 0 33 16 52 45
52 30 0 55 -31 55 -68 0 -28 -5 -33 -71 -63 -39 -18 -77 -42 -85 -53 -22 -32
-18 -89 9 -114 31 -29 66 -28 111 3 45 30 44 30 48 3 4 -33 39 -34 77 -3 17
15 31 31 31 37 0 6 -6 6 -15 -2 -8 -7 -22 -10 -30 -6 -12 4 -15 27 -15 120 0
141 -9 157 -91 163 -45 4 -60 1 -89 -19z m120 -183 c0 -62 -1 -65 -31 -81 -45
-23 -79 -7 -79 39 0 41 14 59 65 86 22 11 41 20 43 21 1 0 2 -29 2 -65z"/>
<path d="M1670 481 c-74 -40 -105 -156 -63 -238 27 -51 63 -75 120 -80 39 -4
55 0 82 19 57 38 75 71 79 143 4 57 1 70 -21 104 -45 67 -127 89 -197 52z
m110 -29 c51 -52 65 -177 26 -236 -24 -37 -86 -37 -115 0 -29 37 -44 99 -39
163 4 44 10 59 32 78 36 30 61 29 96 -5z"/>
<path d="M1960 443 l1 -48 13 31 c8 18 24 34 37 37 32 9 129 9 129 0 0 -3 -44
-65 -98 -137 -54 -72 -101 -137 -106 -143 -6 -10 25 -13 138 -13 l146 0 -1 53
c-1 50 -1 51 -10 19 -6 -21 -19 -36 -35 -42 -29 -11 -154 -14 -154 -3 0 4 47
69 105 144 58 76 105 140 105 143 0 3 -61 6 -135 6 l-135 0 0 -47z"/>
</g>
</svg>
