<?xml version="1.0" standalone="no"?>
<!DOCTYPE svg PUBLIC "-//W3C//DTD SVG 20010904//EN"
 "http://www.w3.org/TR/2001/REC-SVG-20010904/DTD/svg10.dtd">
<svg version="1.0" xmlns="http://www.w3.org/2000/svg"
 width="267.804878pt" height="72.000000pt" viewBox="0 0 267.804878 72.000000"
 preserveAspectRatio="xMidYMid meet">
<metadata>
Created by potrace 1.15, written by Peter Selinger 2001-2017
</metadata>
<g transform="translate(0.000000,72.000000) scale(0.087805,-0.087805)"
fill="#000000" stroke="none">
<path d="M1053 652 c-48 -18 -54 -29 -20 -34 l22 -3 0 -210 0 -209 -25 -13
c-22 -11 -15 -13 60 -12 69 0 80 2 58 11 l-28 10 0 113 c0 111 1 114 26 134
35 28 70 27 89 -3 12 -18 15 -47 13 -132 -3 -104 -4 -109 -28 -121 -22 -11
-15 -13 60 -12 67 0 79 3 58 10 l-26 10 -4 124 c-3 107 -6 127 -24 152 -32 42
-82 43 -128 3 l-36 -32 0 116 c0 128 2 125 -67 98z"/>
<path d="M30 633 c49 -9 50 -13 50 -222 0 -108 -4 -202 -9 -209 -4 -7 -21 -17
-37 -22 -42 -12 262 -12 308 0 49 14 98 71 98 113 0 47 -20 79 -64 103 -36 20
-37 22 -17 29 25 8 61 60 61 88 0 41 -33 89 -74 108 -35 16 -65 18 -191 17
-83 0 -139 -3 -125 -5z m260 -32 c42 -22 63 -71 48 -114 -17 -48 -53 -61 -155
-58 l-33 1 0 88 c0 49 3 92 7 95 13 14 99 6 133 -12z m-21 -207 c65 -13 104
-78 81 -135 -18 -42 -57 -59 -135 -59 l-65 0 0 100 0 100 44 0 c24 0 57 -3 75
-6z"/>
<path d="M1757 629 c21 -6 35 -17 38 -32 3 -12 4 -107 3 -212 l-3 -190 -35
-12 c-31 -11 -23 -12 75 -11 61 0 99 3 85 5 -45 9 -50 20 -50 118 l0 92 49 -5
c102 -9 171 41 171 127 0 100 -57 131 -240 130 -95 -1 -117 -3 -93 -10z m224
-48 c23 -24 29 -38 29 -73 0 -72 -49 -117 -112 -103 l-28 7 0 99 0 99 41 0
c31 0 47 -6 70 -29z"/>
<path d="M890 560 c-7 -17 -28 -43 -46 -60 -41 -35 -42 -40 -9 -40 l25 0 0
-130 c0 -117 2 -132 20 -150 27 -27 52 -25 89 6 37 31 41 51 6 28 -48 -32 -55
-17 -55 121 l0 125 35 0 c19 0 35 5 35 10 0 6 -16 10 -35 10 l-35 0 0 55 c0
61 -11 70 -30 25z"/>
<path d="M591 482 c-56 -28 -75 -63 -79 -145 -2 -59 1 -78 17 -105 63 -100
192 -91 238 17 8 18 11 36 7 40 -4 3 -9 0 -12 -8 -3 -8 -15 -25 -28 -38 -63
-62 -174 3 -174 103 0 24 0 24 110 24 124 0 131 6 87 71 -40 59 -101 75 -166
41z m91 -29 c8 -10 18 -28 21 -40 5 -22 3 -23 -69 -23 -82 0 -90 8 -53 54 25
31 77 36 101 9z"/>
<path d="M2231 482 c-56 -28 -75 -63 -79 -145 -2 -59 1 -78 17 -105 63 -100
192 -91 238 17 8 18 11 36 7 40 -4 3 -9 0 -12 -8 -3 -8 -15 -25 -28 -38 -63
-62 -174 3 -174 103 0 24 0 24 110 24 124 0 131 6 87 71 -40 59 -101 75 -166
41z m91 -29 c8 -10 18 -28 21 -40 5 -22 3 -23 -69 -23 -82 0 -90 8 -53 54 25
31 77 36 101 9z"/>
<path d="M2550 481 c-74 -40 -105 -156 -63 -238 27 -51 63 -75 120 -80 39 -4
55 0 82 19 57 38 75 71 79 143 4 57 1 70 -21 104 -45 67 -127 89 -197 52z
m110 -29 c51 -52 65 -177 26 -236 -24 -37 -86 -37 -115 0 -29 37 -44 99 -39
163 4 44 10 59 32 78 36 30 61 29 96 -5z"/>
<path d="M2863 481 c-51 -20 -63 -31 -35 -31 29 0 33 -23 30 -150 -3 -100 -4
-105 -28 -117 -22 -11 -15 -13 60 -13 75 0 82 2 60 13 -24 12 -25 17 -28 118
-2 92 0 109 17 130 17 21 21 22 44 10 31 -17 57 -8 57 18 0 48 -63 46 -102 -3
l-18 -21 0 27 c0 36 -8 39 -57 19z"/>
<path d="M1350 35 c0 -13 28 -15 190 -15 162 0 190 2 190 15 0 13 -28 15 -190
15 -162 0 -190 -2 -190 -15z"/>
</g>
</svg>
