<?xml version="1.0" standalone="no"?>
<!DOCTYPE svg PUBLIC "-//W3C//DTD SVG 20010904//EN"
 "http://www.w3.org/TR/2001/REC-SVG-20010904/DTD/svg10.dtd">
<svg version="1.0" xmlns="http://www.w3.org/2000/svg"
 width="239.707317pt" height="72.000000pt" viewBox="0 0 239.707317 72.000000"
 preserveAspectRatio="xMidYMid meet">
<metadata>
Created by potrace 1.15, written by Peter Selinger 2001-2017
</metadata>
<g transform="translate(0.000000,72.000000) scale(0.087805,-0.087805)"
fill="#000000" stroke="none">
<path d="M760 648 c-43 -20 -44 -21 -20 -27 23 -6 25 -12 28 -75 3 -66 3 -67
-19 -55 -12 6 -41 9 -66 6 -146 -16 -190 -259 -59 -321 44 -21 63 -20 109 4
l37 20 0 -21 c0 -22 9 -21 79 9 35 15 35 15 11 22 l-25 6 -3 227 c-2 172 -5
227 -15 226 -6 0 -32 -10 -57 -21z m-20 -188 c27 -27 31 -51 28 -150 -3 -80
-4 -85 -30 -99 -75 -42 -146 63 -124 182 14 73 83 110 126 67z"/>
<path d="M962 658 c-19 -19 -14 -46 9 -53 30 -10 58 19 43 43 -14 22 -36 26
-52 10z"/>
<path d="M1333 652 c-48 -18 -54 -29 -20 -34 l22 -3 0 -210 0 -209 -25 -13
c-22 -11 -15 -13 60 -12 69 0 80 2 58 11 l-28 10 0 113 c0 111 1 114 26 134
35 28 70 27 89 -3 12 -18 15 -47 13 -132 -3 -104 -4 -109 -28 -121 -22 -11
-15 -13 60 -12 67 0 79 3 58 10 l-26 10 -4 124 c-3 107 -6 127 -24 152 -32 42
-82 43 -128 3 l-36 -32 0 116 c0 128 2 125 -67 98z"/>
<path d="M2042 658 c-19 -19 -14 -46 9 -53 30 -10 58 19 43 43 -14 22 -36 26
-52 10z"/>
<path d="M241 628 c-74 -189 -176 -407 -201 -431 l-30 -27 77 1 c46 1 68 4 54
8 -41 11 -46 31 -21 89 l22 52 95 0 94 0 19 -46 c27 -62 25 -80 -7 -92 -22 -8
-7 -10 72 -11 69 0 93 3 78 9 -33 13 -52 49 -145 272 -45 109 -86 198 -91 198
-4 0 -11 -10 -16 -22z m41 -188 l37 -90 -81 0 c-60 0 -79 3 -75 13 28 73 71
167 76 167 3 0 23 -41 43 -90z"/>
<path d="M1170 560 c-7 -17 -28 -43 -46 -60 -41 -35 -42 -40 -9 -40 l25 0 0
-130 c0 -117 2 -132 20 -150 27 -27 52 -25 89 6 37 31 41 51 6 28 -48 -32 -55
-17 -55 121 l0 125 35 0 c19 0 35 5 35 10 0 6 -16 10 -35 10 l-35 0 0 55 c0
61 -11 70 -30 25z"/>
<path d="M940 477 c-42 -19 -43 -21 -19 -24 23 -4 27 -10 33 -50 16 -116 4
-210 -28 -223 -14 -6 5 -9 59 -9 44 1 73 3 65 6 -35 12 -40 35 -40 180 0 108
-3 143 -12 142 -7 0 -33 -10 -58 -22z"/>
<path d="M1720 478 c-37 -25 -49 -60 -30 -83 18 -22 50 -1 50 33 0 33 16 52
45 52 30 0 55 -31 55 -68 0 -28 -5 -33 -71 -63 -39 -18 -77 -42 -85 -53 -22
-32 -18 -89 9 -114 31 -29 66 -28 111 3 45 30 44 30 48 3 4 -33 39 -34 77 -3
17 15 31 31 31 37 0 6 -6 6 -15 -2 -8 -7 -22 -10 -30 -6 -12 4 -15 27 -15 120
0 141 -9 157 -91 163 -45 4 -60 1 -89 -19z m120 -183 c0 -62 -1 -65 -31 -81
-45 -23 -79 -7 -79 39 0 41 14 59 65 86 22 11 41 20 43 21 1 0 2 -29 2 -65z"/>
<path d="M2020 477 c-42 -19 -43 -21 -19 -24 23 -4 27 -10 33 -50 16 -116 4
-210 -28 -223 -14 -6 5 -9 59 -9 44 1 73 3 65 6 -35 12 -40 35 -40 180 0 108
-3 143 -12 142 -7 0 -33 -10 -58 -22z"/>
<path d="M2210 478 c-43 -20 -44 -21 -20 -27 25 -7 25 -7 25 -131 0 -123 0
-125 -25 -137 -22 -11 -15 -13 60 -13 75 0 82 2 60 13 -24 12 -25 15 -25 127
l0 114 33 19 c71 42 102 -1 102 -140 0 -86 -11 -120 -42 -126 -13 -2 18 -4 67
-4 50 -1 81 1 70 4 -37 9 -45 32 -45 133 0 88 2 98 23 118 13 12 37 24 54 28
52 10 64 -21 61 -152 -3 -104 -4 -109 -28 -121 -22 -11 -15 -13 60 -13 75 0
82 2 60 13 -24 12 -25 16 -30 141 -5 125 -6 128 -33 152 -15 13 -39 24 -53 24
-29 0 -75 -22 -93 -44 -12 -14 -16 -12 -41 14 -41 44 -90 39 -147 -13 l-23
-20 0 31 c0 37 -8 38 -70 10z"/>
</g>
</svg>
