<?xml version="1.0" standalone="no"?>
<!DOCTYPE svg PUBLIC "-//W3C//DTD SVG 20010904//EN"
 "http://www.w3.org/TR/2001/REC-SVG-20010904/DTD/svg10.dtd">
<svg version="1.0" xmlns="http://www.w3.org/2000/svg"
 width="190.536585pt" height="72.000000pt" viewBox="0 0 190.536585 72.000000"
 preserveAspectRatio="xMidYMid meet">
<metadata>
Created by potrace 1.15, written by Peter Selinger 2001-2017
</metadata>
<g transform="translate(0.000000,72.000000) scale(0.087805,-0.087805)"
fill="#000000" stroke="none">
<path d="M241 628 c-74 -189 -176 -407 -201 -431 l-30 -27 77 1 c46 1 68 4 54
8 -41 11 -46 31 -21 89 l22 52 95 0 94 0 19 -46 c27 -62 25 -80 -7 -92 -22 -8
-7 -10 72 -11 69 0 93 3 78 9 -33 13 -52 49 -145 272 -45 109 -86 198 -91 198
-4 0 -11 -10 -16 -22z m41 -188 l37 -90 -81 0 c-60 0 -79 3 -75 13 28 73 71
167 76 167 3 0 23 -41 43 -90z"/>
<path d="M570 478 c-43 -20 -44 -21 -20 -27 25 -7 25 -7 25 -131 0 -123 0
-125 -25 -137 -22 -11 -15 -13 60 -13 75 0 82 2 60 13 -24 12 -25 15 -25 127
l0 114 33 19 c71 42 102 -1 102 -140 0 -86 -11 -120 -42 -126 -13 -2 18 -4 67
-4 50 -1 81 1 70 4 -37 9 -45 32 -45 133 0 88 2 98 23 118 13 12 37 24 54 28
52 10 64 -21 61 -152 -3 -104 -4 -109 -28 -121 -22 -11 -15 -13 60 -13 75 0
82 2 60 13 -24 12 -25 16 -30 141 -5 125 -6 128 -33 152 -15 13 -39 24 -53 24
-29 0 -75 -22 -93 -44 -12 -14 -16 -12 -41 14 -41 44 -90 39 -147 -13 l-23
-20 0 31 c0 37 -8 38 -70 10z"/>
<path d="M1133 482 c-45 -17 -56 -32 -24 -32 27 0 31 -18 31 -134 0 -103 -7
-127 -40 -139 -8 -3 23 -5 70 -5 49 0 75 3 60 7 -25 7 -25 9 -28 124 l-3 117
33 20 c41 25 53 25 78 0 19 -19 20 -31 18 -133 -3 -108 -4 -112 -28 -124 -22
-11 -15 -13 60 -13 75 0 82 2 60 13 -24 12 -25 17 -30 133 -5 131 -19 168 -64
180 -32 8 -59 -2 -96 -33 l-30 -25 0 31 c0 35 -7 37 -67 13z"/>
<path d="M1550 481 c-74 -40 -105 -156 -63 -238 27 -51 63 -75 120 -80 39 -4
55 0 82 19 57 38 75 71 79 143 4 57 1 70 -21 104 -45 67 -127 89 -197 52z
m110 -29 c51 -52 65 -177 26 -236 -24 -37 -86 -37 -115 0 -29 37 -44 99 -39
163 4 44 10 59 32 78 36 30 61 29 96 -5z"/>
<path d="M1853 482 c-45 -17 -56 -32 -24 -32 27 0 31 -18 31 -134 0 -103 -7
-127 -40 -139 -8 -3 23 -5 70 -5 49 0 75 3 60 7 -25 7 -25 9 -28 124 l-3 117
33 20 c41 25 53 25 78 0 19 -19 20 -31 18 -133 -3 -108 -4 -112 -28 -124 -22
-11 -15 -13 60 -13 75 0 82 2 60 13 -24 12 -25 17 -30 133 -5 131 -19 168 -64
180 -32 8 -59 -2 -96 -33 l-30 -25 0 31 c0 35 -7 37 -67 13z"/>
</g>
</svg>
