<?xml version="1.0" standalone="no"?>
<!DOCTYPE svg PUBLIC "-//W3C//DTD SVG 20010904//EN"
 "http://www.w3.org/TR/2001/REC-SVG-20010904/DTD/svg10.dtd">
<svg version="1.0" xmlns="http://www.w3.org/2000/svg"
 width="215.121951pt" height="72.000000pt" viewBox="0 0 215.121951 72.000000"
 preserveAspectRatio="xMidYMid meet">
<metadata>
Created by potrace 1.15, written by Peter Selinger 2001-2017
</metadata>
<g transform="translate(0.000000,72.000000) scale(0.087805,-0.087805)"
fill="#000000" stroke="none">
<path d="M602 658 c-19 -19 -14 -46 9 -53 30 -10 58 19 43 43 -14 22 -36 26
-52 10z"/>
<path d="M2133 652 c-48 -18 -54 -29 -20 -34 l22 -3 0 -210 0 -209 -25 -13
c-22 -11 -15 -13 60 -12 69 0 80 2 58 11 l-28 10 0 113 c0 111 1 114 26 134
35 28 70 27 89 -3 12 -18 15 -47 13 -132 -3 -104 -4 -109 -28 -121 -22 -11
-15 -13 60 -12 67 0 79 3 58 10 l-26 10 -4 124 c-3 107 -6 127 -24 152 -32 42
-82 43 -128 3 l-36 -32 0 116 c0 128 2 125 -67 98z"/>
<path d="M40 618 l45 -23 3 -194 c3 -202 0 -216 -41 -224 -12 -2 16 -4 63 -4
47 0 75 2 63 4 -40 8 -44 23 -41 191 l3 161 150 -184 c83 -101 153 -184 158
-185 4 0 7 96 7 213 0 229 4 251 53 260 12 2 -18 5 -68 5 -82 1 -87 0 -55 -11
l35 -12 3 -164 3 -164 -78 94 c-42 52 -108 131 -145 177 l-69 82 -67 0 -66 0
44 -22z"/>
<path d="M580 477 c-42 -19 -43 -21 -19 -24 23 -4 27 -10 33 -50 16 -116 4
-210 -28 -223 -14 -6 5 -9 59 -9 44 1 73 3 65 6 -35 12 -40 35 -40 180 0 108
-3 143 -12 142 -7 0 -33 -10 -58 -22z"/>
<path d="M773 482 c-45 -17 -56 -32 -24 -32 27 0 31 -18 31 -134 0 -103 -7
-127 -40 -139 -8 -3 23 -5 70 -5 49 0 75 3 60 7 -25 7 -25 9 -28 124 l-3 117
33 20 c41 25 53 25 78 0 19 -19 20 -31 18 -133 -3 -108 -4 -112 -28 -124 -22
-11 -15 -13 60 -13 75 0 82 2 60 13 -24 12 -25 17 -30 133 -5 131 -19 168 -64
180 -32 8 -59 -2 -96 -33 l-30 -25 0 31 c0 35 -7 37 -67 13z"/>
<path d="M1191 482 c-56 -28 -75 -63 -79 -145 -2 -59 1 -78 17 -105 63 -100
192 -91 238 17 8 18 11 36 7 40 -4 3 -9 0 -12 -8 -3 -8 -15 -25 -28 -38 -63
-62 -174 3 -174 103 0 24 0 24 110 24 124 0 131 6 87 71 -40 59 -101 75 -166
41z m91 -29 c8 -10 18 -28 21 -40 5 -22 3 -23 -69 -23 -82 0 -90 8 -53 54 25
31 77 36 101 9z"/>
<path d="M1871 482 c-56 -28 -75 -63 -79 -145 -2 -59 1 -78 17 -105 63 -100
192 -91 238 17 8 18 11 36 7 40 -4 3 -9 0 -12 -8 -3 -8 -15 -25 -28 -38 -63
-62 -174 3 -174 103 0 24 0 24 110 24 124 0 131 6 87 71 -40 59 -101 75 -166
41z m91 -29 c8 -10 18 -28 21 -40 5 -22 3 -23 -69 -23 -82 0 -90 8 -53 54 25
31 77 36 101 9z"/>
<path d="M1431 467 c17 -14 48 -74 85 -160 32 -76 62 -140 66 -143 5 -3 16 12
24 33 85 205 110 257 127 274 21 19 20 19 -34 19 -41 -1 -50 -3 -36 -11 9 -5
17 -16 17 -24 0 -20 -71 -195 -79 -195 -7 0 -81 179 -81 198 0 7 10 17 23 22
16 6 0 9 -58 9 l-80 1 26 -23z"/>
</g>
</svg>
