<?xml version="1.0" standalone="no"?>
<!DOCTYPE svg PUBLIC "-//W3C//DTD SVG 20010904//EN"
 "http://www.w3.org/TR/2001/REC-SVG-20010904/DTD/svg10.dtd">
<svg version="1.0" xmlns="http://www.w3.org/2000/svg"
 width="134.341463pt" height="72.000000pt" viewBox="0 0 134.341463 72.000000"
 preserveAspectRatio="xMidYMid meet">
<metadata>
Created by potrace 1.15, written by Peter Selinger 2001-2017
</metadata>
<g transform="translate(0.000000,72.000000) scale(0.087805,-0.087805)"
fill="#000000" stroke="none">
<path d="M1213 652 c-48 -18 -54 -29 -20 -34 l22 -3 0 -210 0 -209 -25 -13
c-22 -11 -15 -13 60 -12 69 0 80 2 58 11 l-28 10 0 113 c0 111 1 114 26 134
35 28 70 27 89 -3 12 -18 15 -47 13 -132 -3 -104 -4 -109 -28 -121 -22 -11
-15 -13 60 -12 67 0 79 3 58 10 l-26 10 -4 124 c-3 107 -6 127 -24 152 -32 42
-82 43 -128 3 l-36 -32 0 116 c0 128 2 125 -67 98z"/>
<path d="M60 621 c0 -16 -3 -43 -6 -60 -4 -18 -2 -31 4 -31 5 0 12 13 15 30
10 49 42 61 147 58 l91 -3 -147 -210 c-80 -115 -149 -215 -151 -222 -4 -10 37
-13 190 -13 l195 0 11 62 c12 72 8 84 -12 35 -25 -58 -47 -67 -174 -67 -62 0
-113 3 -113 6 0 3 65 99 143 213 79 113 147 212 151 219 6 9 -31 12 -168 12
l-176 0 0 -29z"/>
<path d="M853 482 c-53 -22 -63 -32 -30 -32 l27 0 0 -200 0 -199 -27 -15 c-27
-14 -23 -15 62 -15 86 0 89 0 58 14 -32 14 -33 15 -33 81 0 59 2 65 18 58 39
-17 97 -15 129 5 67 42 98 173 59 249 -41 79 -124 94 -178 32 l-28 -30 0 35
c0 40 0 40 -57 17z m169 -43 c44 -24 64 -149 33 -209 -28 -54 -80 -65 -120
-25 -23 22 -25 32 -25 114 0 85 1 91 26 110 30 23 55 26 86 10z"/>
<path d="M461 479 c33 -12 39 -38 39 -171 0 -92 2 -101 25 -123 34 -35 76 -33
118 5 19 17 37 30 41 30 3 0 6 -14 6 -31 0 -34 5 -34 79 -1 35 16 35 16 10 20
-23 3 -27 9 -33 49 -3 25 -6 88 -6 139 l0 94 -52 0 c-45 -1 -50 -2 -33 -12 32
-18 35 -28 35 -129 0 -86 -2 -98 -22 -117 -32 -29 -69 -36 -93 -18 -18 13 -20
28 -23 145 l-4 131 -56 -1 c-49 0 -53 -2 -31 -10z"/>
</g>
</svg>
