<?xml version="1.0" standalone="no"?>
<!DOCTYPE svg PUBLIC "-//W3C//DTD SVG 20010904//EN"
 "http://www.w3.org/TR/2001/REC-SVG-20010904/DTD/svg10.dtd">
<svg version="1.0" xmlns="http://www.w3.org/2000/svg"
 width="216.000000pt" height="72.000000pt" viewBox="0 0 216.000000 72.000000"
 preserveAspectRatio="xMidYMid meet">
<metadata>
Created by potrace 1.15, written by Peter Selinger 2001-2017
</metadata>
<g transform="translate(0.000000,72.000000) scale(0.087805,-0.087805)"
fill="#000000" stroke="none">
<path d="M492 658 c-19 -19 -14 -46 9 -53 30 -10 58 19 43 43 -14 22 -36 26
-52 10z"/>
<path d="M1783 652 c-48 -18 -54 -29 -20 -34 l22 -3 0 -210 0 -209 -25 -13
c-22 -11 -15 -13 60 -12 69 0 80 2 58 11 l-28 10 0 113 c0 111 1 114 26 134
35 28 70 27 89 -3 12 -18 15 -47 13 -132 -3 -104 -4 -109 -28 -121 -22 -11
-15 -13 60 -12 67 0 79 3 58 10 l-26 10 -4 124 c-3 107 -6 127 -24 152 -32 42
-82 43 -128 3 l-36 -32 0 116 c0 128 2 125 -67 98z"/>
<path d="M26 603 c-8 -54 -7 -73 4 -73 6 0 10 9 10 20 0 38 35 60 95 60 l55 0
0 -187 c0 -104 -3 -198 -6 -211 -4 -14 -18 -25 -38 -31 -23 -7 -5 -9 74 -9 79
0 97 2 74 9 -41 12 -44 28 -44 250 l0 179 51 0 c62 0 85 -12 103 -53 l14 -32
1 58 1 57 -194 0 -193 0 -7 -37z"/>
<path d="M1620 560 c-7 -17 -28 -43 -46 -60 -41 -35 -42 -40 -9 -40 l25 0 0
-130 c0 -117 2 -132 20 -150 27 -27 52 -25 89 6 37 31 41 51 6 28 -48 -32 -55
-17 -55 121 l0 125 35 0 c19 0 35 5 35 10 0 6 -16 10 -35 10 l-35 0 0 55 c0
61 -11 70 -30 25z"/>
<path d="M470 477 c-42 -19 -43 -21 -19 -24 23 -4 27 -10 33 -50 16 -116 4
-210 -28 -223 -14 -6 5 -9 59 -9 44 1 73 3 65 6 -35 12 -40 35 -40 180 0 108
-3 143 -12 142 -7 0 -33 -10 -58 -22z"/>
<path d="M660 478 c-43 -20 -44 -21 -20 -27 25 -7 25 -7 25 -131 0 -123 0
-125 -25 -137 -22 -11 -15 -13 60 -13 75 0 82 2 60 13 -24 12 -25 15 -25 127
l0 114 33 19 c71 42 102 -1 102 -140 0 -86 -11 -120 -42 -126 -13 -2 18 -4 67
-4 50 -1 81 1 70 4 -37 9 -45 32 -45 133 0 88 2 98 23 118 13 12 37 24 54 28
52 10 64 -21 61 -152 -3 -104 -4 -109 -28 -121 -22 -11 -15 -13 60 -13 75 0
82 2 60 13 -24 12 -25 16 -30 141 -5 125 -6 128 -33 152 -15 13 -39 24 -53 24
-29 0 -75 -22 -93 -44 -12 -14 -16 -12 -41 14 -41 44 -90 39 -147 -13 l-23
-20 0 31 c0 37 -8 38 -70 10z"/>
<path d="M1280 481 c-74 -40 -105 -156 -63 -238 27 -51 63 -75 120 -80 39 -4
55 0 82 19 57 38 75 71 79 143 4 57 1 70 -21 104 -45 67 -127 89 -197 52z
m110 -29 c51 -52 65 -177 26 -236 -24 -37 -86 -37 -115 0 -29 37 -44 99 -39
163 4 44 10 59 32 78 36 30 61 29 96 -5z"/>
<path d="M2118 463 c20 -18 52 -72 90 -153 57 -122 58 -126 44 -160 -24 -59
-39 -70 -87 -63 -38 5 -44 3 -50 -16 -15 -48 36 -66 92 -31 38 23 50 45 133
250 36 90 73 164 87 178 l24 22 -58 0 c-44 -1 -54 -3 -40 -11 24 -14 22 -26
-20 -130 l-36 -92 -43 84 c-47 92 -53 123 -26 138 12 8 -4 10 -63 11 l-79 0
32 -27z"/>
</g>
</svg>
