<?xml version="1.0" standalone="no"?>
<!DOCTYPE svg PUBLIC "-//W3C//DTD SVG 20010904//EN"
 "http://www.w3.org/TR/2001/REC-SVG-20010904/DTD/svg10.dtd">
<svg version="1.0" xmlns="http://www.w3.org/2000/svg"
 width="106.243902pt" height="72.000000pt" viewBox="0 0 106.243902 72.000000"
 preserveAspectRatio="xMidYMid meet">
<metadata>
Created by potrace 1.15, written by Peter Selinger 2001-2017
</metadata>
<g transform="translate(0.000000,72.000000) scale(0.087805,-0.087805)"
fill="#000000" stroke="none">
<path d="M393 652 c-53 -22 -63 -32 -30 -32 l27 0 0 -215 c0 -214 0 -216 -22
-225 -16 -6 2 -9 62 -8 47 0 76 2 65 5 -42 10 -45 26 -45 265 0 125 -3 228 -7
227 -5 0 -27 -8 -50 -17z"/>
<path d="M111 483 c-53 -26 -83 -81 -83 -151 0 -64 15 -103 55 -140 53 -50
146 -33 187 33 32 53 25 70 -13 29 -26 -29 -40 -36 -70 -36 -47 0 -71 20 -93
78 -29 75 -2 160 55 179 29 9 58 -11 66 -44 8 -35 40 -50 62 -29 20 21 2 63
-36 83 -39 19 -87 19 -130 -2z"/>
<path d="M600 478 c-37 -25 -49 -60 -30 -83 18 -22 50 -1 50 33 0 33 16 52 45
52 30 0 55 -31 55 -68 0 -28 -5 -33 -71 -63 -39 -18 -77 -42 -85 -53 -22 -32
-18 -89 9 -114 31 -29 66 -28 111 3 45 30 44 30 48 3 4 -33 39 -34 77 -3 17
15 31 31 31 37 0 6 -6 6 -15 -2 -8 -7 -22 -10 -30 -6 -12 4 -15 27 -15 120 0
141 -9 157 -91 163 -45 4 -60 1 -89 -19z m120 -183 c0 -62 -1 -65 -31 -81 -45
-23 -79 -7 -79 39 0 41 14 59 65 86 22 11 41 20 43 21 1 0 2 -29 2 -65z"/>
<path d="M868 463 c20 -18 52 -72 90 -153 57 -122 58 -126 44 -160 -24 -59
-39 -70 -87 -63 -38 5 -44 3 -50 -16 -15 -48 36 -66 92 -31 38 23 50 45 133
250 36 90 73 164 87 178 l24 22 -58 0 c-44 -1 -54 -3 -40 -11 24 -14 22 -26
-20 -130 l-36 -92 -43 84 c-47 92 -53 123 -26 138 12 8 -4 10 -63 11 l-79 0
32 -27z"/>
</g>
</svg>
