<?xml version="1.0" standalone="no"?>
<!DOCTYPE svg PUBLIC "-//W3C//DTD SVG 20010904//EN"
 "http://www.w3.org/TR/2001/REC-SVG-20010904/DTD/svg10.dtd">
<svg version="1.0" xmlns="http://www.w3.org/2000/svg"
 width="176.487805pt" height="72.000000pt" viewBox="0 0 176.487805 72.000000"
 preserveAspectRatio="xMidYMid meet">
<metadata>
Created by potrace 1.15, written by Peter Selinger 2001-2017
</metadata>
<g transform="translate(0.000000,72.000000) scale(0.087805,-0.087805)"
fill="#000000" stroke="none">
<path d="M1082 658 c-19 -19 -14 -46 9 -53 30 -10 58 19 43 43 -14 22 -36 26
-52 10z"/>
<path d="M20 641 c0 -5 12 -11 28 -13 l27 -3 0 -215 0 -215 -35 -12 c-29 -10
-4 -12 154 -10 l188 2 19 50 c23 60 24 77 3 50 -54 -74 -59 -76 -158 -73 l-91
3 -3 98 -3 97 73 0 c83 0 91 -4 106 -45 9 -26 11 -17 11 60 l1 90 -18 -35 -17
-35 -77 -3 -78 -3 0 96 0 95 90 0 c77 0 93 -3 110 -20 11 -11 20 -29 20 -40 0
-11 5 -20 11 -20 8 0 10 13 5 38 -3 20 -6 45 -6 55 0 16 -15 17 -180 17 -105
0 -180 -4 -180 -9z"/>
<path d="M1290 560 c-7 -17 -28 -43 -46 -60 -41 -35 -42 -40 -9 -40 l25 0 0
-130 c0 -117 2 -132 20 -150 27 -27 52 -25 89 6 37 31 41 51 6 28 -48 -32 -55
-17 -55 121 l0 125 35 0 c19 0 35 5 35 10 0 6 -16 10 -35 10 l-35 0 0 55 c0
61 -11 70 -30 25z"/>
<path d="M490 478 c-43 -20 -44 -21 -20 -27 25 -7 25 -7 25 -131 0 -123 0
-125 -25 -137 -22 -11 -15 -13 60 -13 75 0 82 2 60 13 -24 12 -25 15 -25 127
l0 114 33 19 c71 42 102 -1 102 -140 0 -86 -11 -120 -42 -126 -13 -2 18 -4 67
-4 50 -1 81 1 70 4 -37 9 -45 32 -45 133 0 88 2 98 23 118 13 12 37 24 54 28
52 10 64 -21 61 -152 -3 -104 -4 -109 -28 -121 -22 -11 -15 -13 60 -13 75 0
82 2 60 13 -24 12 -25 16 -30 141 -5 125 -6 128 -33 152 -15 13 -39 24 -53 24
-29 0 -75 -22 -93 -44 -12 -14 -16 -12 -41 14 -41 44 -90 39 -147 -13 l-23
-20 0 31 c0 37 -8 38 -70 10z"/>
<path d="M1060 477 c-42 -19 -43 -21 -19 -24 23 -4 27 -10 33 -50 16 -116 4
-210 -28 -223 -14 -6 5 -9 59 -9 44 1 73 3 65 6 -35 12 -40 35 -40 180 0 108
-3 143 -12 142 -7 0 -33 -10 -58 -22z"/>
<path d="M1511 482 c-56 -28 -75 -63 -79 -145 -2 -59 1 -78 17 -105 63 -100
192 -91 238 17 8 18 11 36 7 40 -4 3 -9 0 -12 -8 -3 -8 -15 -25 -28 -38 -63
-62 -174 3 -174 103 0 24 0 24 110 24 124 0 131 6 87 71 -40 59 -101 75 -166
41z m91 -29 c8 -10 18 -28 21 -40 5 -22 3 -23 -69 -23 -82 0 -90 8 -53 54 25
31 77 36 101 9z"/>
<path d="M1805 488 c-32 -18 -44 -40 -45 -78 0 -48 8 -57 87 -104 56 -34 69
-46 71 -71 10 -82 -106 -67 -144 19 -13 31 -13 31 -14 -26 l0 -56 64 -7 c97
-11 146 22 146 98 0 39 -23 64 -90 97 -61 30 -80 49 -80 77 0 15 9 27 25 35
37 17 76 0 97 -40 25 -51 28 -50 28 9 l0 54 -63 2 c-34 1 -71 -3 -82 -9z"/>
</g>
</svg>
