<?xml version="1.0" standalone="no"?>
<!DOCTYPE svg PUBLIC "-//W3C//DTD SVG 20010904//EN"
 "http://www.w3.org/TR/2001/REC-SVG-20010904/DTD/svg10.dtd">
<svg version="1.0" xmlns="http://www.w3.org/2000/svg"
 width="155.414634pt" height="72.000000pt" viewBox="0 0 155.414634 72.000000"
 preserveAspectRatio="xMidYMid meet">
<metadata>
Created by potrace 1.15, written by Peter Selinger 2001-2017
</metadata>
<g transform="translate(0.000000,72.000000) scale(0.087805,-0.087805)"
fill="#000000" stroke="none">
<path d="M890 648 c-43 -20 -44 -21 -20 -27 l25 -7 0 -209 0 -209 -25 -13
c-22 -11 -15 -13 60 -12 50 1 75 4 60 8 -24 6 -25 11 -28 86 l-3 79 55 -70
c57 -71 65 -89 44 -97 -7 -3 61 -5 152 -5 91 0 154 3 140 7 -24 6 -25 11 -28
86 l-3 79 55 -70 c57 -71 65 -89 44 -97 -7 -3 23 -6 67 -6 78 -1 79 0 50 15
-16 8 -59 51 -94 95 l-64 80 48 49 c27 27 67 56 89 64 l41 14 -74 1 c-66 1
-72 -1 -60 -15 11 -13 4 -23 -44 -72 l-57 -57 0 163 c0 91 -4 162 -9 162 -5 0
-31 -10 -58 -21 -45 -20 -46 -22 -23 -28 l25 -7 3 -203 c2 -142 -1 -208 -9
-217 -17 -21 -72 -17 -97 6 -11 11 -47 52 -78 91 l-57 70 48 49 c27 27 67 56
89 64 l41 14 -74 1 c-66 1 -72 -1 -60 -15 11 -13 4 -23 -44 -72 l-57 -57 0
163 c0 123 -3 162 -12 161 -7 0 -33 -10 -58 -21z"/>
<path d="M1642 658 c-19 -19 -14 -46 9 -53 30 -10 58 19 43 43 -14 22 -36 26
-52 10z"/>
<path d="M30 633 c49 -9 50 -13 50 -222 0 -108 -4 -202 -9 -209 -4 -7 -21 -17
-37 -22 -42 -12 262 -12 308 0 49 14 98 71 98 113 0 47 -20 79 -64 103 -36 20
-37 22 -17 29 25 8 61 60 61 88 0 41 -33 89 -74 108 -35 16 -65 18 -191 17
-83 0 -139 -3 -125 -5z m260 -32 c42 -22 63 -71 48 -114 -17 -48 -53 -61 -155
-58 l-33 1 0 88 c0 49 3 92 7 95 13 14 99 6 133 -12z m-21 -207 c65 -13 104
-78 81 -135 -18 -42 -57 -59 -135 -59 l-65 0 0 100 0 100 44 0 c24 0 57 -3 75
-6z"/>
<path d="M1620 477 c-42 -19 -43 -21 -19 -24 23 -4 27 -10 33 -50 16 -116 4
-210 -28 -223 -14 -6 5 -9 59 -9 44 1 73 3 65 6 -35 12 -40 35 -40 180 0 108
-3 143 -12 142 -7 0 -33 -10 -58 -22z"/>
<path d="M501 479 c33 -12 39 -38 39 -171 0 -92 2 -101 25 -123 34 -35 76 -33
118 5 19 17 37 30 41 30 3 0 6 -14 6 -31 0 -34 5 -34 79 -1 35 16 35 16 10 20
-23 3 -27 9 -33 49 -3 25 -6 88 -6 139 l0 94 -52 0 c-45 -1 -50 -2 -33 -12 32
-18 35 -28 35 -129 0 -86 -2 -98 -22 -117 -32 -29 -69 -36 -93 -18 -18 13 -20
28 -23 145 l-4 131 -56 -1 c-49 0 -53 -2 -31 -10z"/>
</g>
</svg>
