<?xml version="1.0" standalone="no"?>
<!DOCTYPE svg PUBLIC "-//W3C//DTD SVG 20010904//EN"
 "http://www.w3.org/TR/2001/REC-SVG-20010904/DTD/svg10.dtd">
<svg version="1.0" xmlns="http://www.w3.org/2000/svg"
 width="71.121951pt" height="72.000000pt" viewBox="0 0 71.121951 72.000000"
 preserveAspectRatio="xMidYMid meet">
<metadata>
Created by potrace 1.15, written by Peter Selinger 2001-2017
</metadata>
<g transform="translate(0.000000,72.000000) scale(0.087805,-0.087805)"
fill="#000000" stroke="none">
<path d="M161 653 c-37 -18 -70 -78 -71 -125 0 -24 -4 -28 -30 -28 -20 0 -30
-5 -30 -15 0 -10 10 -15 30 -15 l30 0 0 -130 0 -131 -32 -14 c-31 -13 -27 -14
67 -13 55 0 89 3 75 5 -47 9 -50 18 -50 154 l0 129 40 0 c29 0 40 4 40 15 0
11 -11 15 -40 15 l-40 0 0 51 c0 65 13 89 48 89 20 0 35 -9 50 -30 25 -34 34
-36 55 -16 8 8 23 13 34 10 23 -6 48 19 39 41 -10 26 -38 30 -56 8 -16 -20
-17 -20 -39 -2 -29 23 -75 24 -120 2z"/>
<path d="M300 477 c-42 -19 -43 -21 -19 -24 23 -4 27 -10 33 -50 16 -116 4
-210 -28 -223 -14 -6 5 -9 59 -9 44 1 73 3 65 6 -35 12 -40 35 -40 180 0 108
-3 143 -12 142 -7 0 -33 -10 -58 -22z"/>
<path d="M471 475 c24 -13 109 -124 109 -143 0 -14 -97 -139 -117 -151 -14 -8
-4 -10 41 -11 52 0 57 2 42 13 -22 16 -16 39 23 86 33 40 41 37 78 -26 26 -44
26 -46 8 -59 -16 -12 -9 -14 61 -14 69 1 76 2 56 13 -20 12 -132 158 -132 173
0 16 75 106 99 119 25 14 24 14 -32 15 -53 0 -56 -1 -46 -18 10 -15 7 -26 -13
-56 l-26 -37 -22 37 c-19 30 -21 40 -12 55 12 18 8 19 -65 19 -72 -1 -76 -2
-52 -15z"/>
</g>
</svg>
