<?xml version="1.0" standalone="no"?>
<!DOCTYPE svg PUBLIC "-//W3C//DTD SVG 20010904//EN"
 "http://www.w3.org/TR/2001/REC-SVG-20010904/DTD/svg10.dtd">
<svg version="1.0" xmlns="http://www.w3.org/2000/svg"
 width="237.073171pt" height="72.000000pt" viewBox="0 0 237.073171 72.000000"
 preserveAspectRatio="xMidYMid meet">
<metadata>
Created by potrace 1.15, written by Peter Selinger 2001-2017
</metadata>
<g transform="translate(0.000000,72.000000) scale(0.087805,-0.087805)"
fill="#000000" stroke="none">
<path d="M1423 652 c-48 -18 -54 -29 -20 -34 l22 -3 0 -210 0 -209 -25 -13
c-22 -11 -15 -13 60 -12 69 0 80 2 58 11 l-28 10 0 113 c0 111 1 114 26 134
35 28 70 27 89 -3 12 -18 15 -47 13 -132 -3 -104 -4 -109 -28 -121 -22 -11
-15 -13 60 -12 67 0 79 3 58 10 l-26 10 -4 124 c-3 107 -6 127 -24 152 -32 42
-82 43 -128 3 l-36 -32 0 116 c0 128 2 125 -67 98z"/>
<path d="M26 603 c-8 -54 -7 -73 4 -73 6 0 10 9 10 20 0 38 35 60 95 60 l55 0
0 -187 c0 -104 -3 -198 -6 -211 -4 -14 -18 -25 -38 -31 -23 -7 -5 -9 74 -9 79
0 97 2 74 9 -41 12 -44 28 -44 250 l0 179 51 0 c62 0 85 -12 103 -53 l14 -32
1 58 1 57 -194 0 -193 0 -7 -37z"/>
<path d="M473 481 c-51 -20 -63 -31 -35 -31 29 0 33 -23 30 -150 -3 -100 -4
-105 -28 -117 -22 -11 -15 -13 60 -13 75 0 82 2 60 13 -24 12 -25 17 -28 118
-2 92 0 109 17 130 17 21 21 22 44 10 32 -17 54 -9 59 20 l3 22 27 -24 c15
-13 54 -80 86 -149 57 -122 58 -126 44 -160 -24 -59 -39 -70 -87 -63 -38 5
-44 3 -50 -16 -15 -48 36 -66 92 -31 38 23 50 45 133 250 36 90 73 164 87 178
l24 22 -58 0 c-44 -1 -54 -3 -40 -11 24 -14 22 -26 -20 -130 l-36 -92 -43 84
c-47 92 -53 123 -26 139 13 7 -5 10 -69 9 -48 -1 -92 1 -98 5 -14 9 -51 -10
-73 -38 l-18 -21 0 27 c0 36 -8 39 -57 19z"/>
<path d="M1063 482 c-53 -22 -63 -32 -30 -32 l27 0 0 -200 0 -199 -27 -15
c-27 -14 -23 -15 62 -15 86 0 89 0 58 14 -32 14 -33 15 -33 81 0 59 2 65 18
58 39 -17 97 -15 129 5 67 42 98 173 59 249 -41 79 -124 94 -178 32 l-28 -30
0 35 c0 40 0 40 -57 17z m169 -43 c44 -24 64 -149 33 -209 -28 -54 -80 -65
-120 -25 -23 22 -25 32 -25 114 0 85 1 91 26 110 30 23 55 26 86 10z"/>
<path d="M1840 481 c-74 -40 -105 -156 -63 -238 27 -51 63 -75 120 -80 39 -4
55 0 82 19 57 38 75 71 79 143 4 57 1 70 -21 104 -45 67 -127 89 -197 52z
m110 -29 c51 -52 65 -177 26 -236 -24 -37 -86 -37 -115 0 -29 37 -44 99 -39
163 4 44 10 59 32 78 36 30 61 29 96 -5z"/>
<path d="M2175 488 c-32 -18 -44 -40 -45 -78 0 -48 8 -57 87 -104 56 -34 69
-46 71 -71 10 -82 -106 -67 -144 19 -13 31 -13 31 -14 -26 l0 -56 64 -7 c97
-11 146 22 146 98 0 39 -23 64 -90 97 -61 30 -80 49 -80 77 0 15 9 27 25 35
37 17 76 0 97 -40 25 -51 28 -50 28 9 l0 54 -63 2 c-34 1 -71 -3 -82 -9z"/>
<path d="M2450 478 c-37 -25 -49 -60 -30 -83 18 -22 50 -1 50 33 0 33 16 52
45 52 30 0 55 -31 55 -68 0 -28 -5 -33 -71 -63 -39 -18 -77 -42 -85 -53 -22
-32 -18 -89 9 -114 31 -29 66 -28 111 3 45 30 44 30 48 3 4 -33 39 -34 77 -3
17 15 31 31 31 37 0 6 -6 6 -15 -2 -8 -7 -22 -10 -30 -6 -12 4 -15 27 -15 120
0 141 -9 157 -91 163 -45 4 -60 1 -89 -19z m120 -183 c0 -62 -1 -65 -31 -81
-45 -23 -79 -7 -79 39 0 41 14 59 65 86 22 11 41 20 43 21 1 0 2 -29 2 -65z"/>
</g>
</svg>
