<?xml version="1.0" standalone="no"?>
<!DOCTYPE svg PUBLIC "-//W3C//DTD SVG 20010904//EN"
 "http://www.w3.org/TR/2001/REC-SVG-20010904/DTD/svg10.dtd">
<svg version="1.0" xmlns="http://www.w3.org/2000/svg"
 width="169.463415pt" height="72.000000pt" viewBox="0 0 169.463415 72.000000"
 preserveAspectRatio="xMidYMid meet">
<metadata>
Created by potrace 1.15, written by Peter Selinger 2001-2017
</metadata>
<g transform="translate(0.000000,72.000000) scale(0.087805,-0.087805)"
fill="#000000" stroke="none">
<path d="M570 648 c-43 -20 -44 -21 -20 -27 l25 -7 0 -209 0 -209 -25 -13
c-22 -11 -15 -13 60 -12 50 1 75 4 60 8 -24 6 -25 11 -28 86 l-3 79 55 -70
c57 -71 65 -89 44 -97 -7 -3 61 -5 152 -5 91 0 154 3 140 7 -24 6 -25 11 -28
86 l-3 79 55 -70 c57 -71 65 -89 44 -97 -7 -3 23 -6 67 -6 78 -1 79 0 50 15
-16 8 -59 51 -94 95 l-64 80 48 49 c27 27 67 56 89 64 l41 14 -74 1 c-66 1
-72 -1 -60 -15 11 -13 4 -23 -44 -72 l-57 -57 0 163 c0 91 -4 162 -9 162 -5 0
-31 -10 -58 -21 -45 -20 -46 -22 -23 -28 l25 -7 3 -203 c2 -142 -1 -208 -9
-217 -17 -21 -72 -17 -97 6 -11 11 -47 52 -78 91 l-57 70 48 49 c27 27 67 56
89 64 l41 14 -74 1 c-66 1 -72 -1 -60 -15 11 -13 4 -23 -44 -72 l-57 -57 0
163 c0 123 -3 162 -12 161 -7 0 -33 -10 -58 -21z"/>
<path d="M1800 648 c-43 -20 -44 -21 -20 -27 23 -6 25 -12 28 -75 3 -66 3 -67
-19 -55 -12 6 -41 9 -66 6 -146 -16 -190 -259 -59 -321 44 -21 63 -20 109 4
l37 20 0 -21 c0 -22 9 -21 79 9 35 15 35 15 11 22 l-25 6 -3 227 c-2 172 -5
227 -15 226 -6 0 -32 -10 -57 -21z m-20 -188 c27 -27 31 -51 28 -150 -3 -80
-4 -85 -30 -99 -75 -42 -146 63 -124 182 14 73 83 110 126 67z"/>
<path d="M241 628 c-74 -189 -176 -407 -201 -431 l-30 -27 77 1 c46 1 68 4 54
8 -41 11 -46 31 -21 89 l22 52 95 0 94 0 19 -46 c27 -62 25 -80 -7 -92 -22 -8
-7 -10 72 -11 69 0 93 3 78 9 -33 13 -52 49 -145 272 -45 109 -86 198 -91 198
-4 0 -11 -10 -16 -22z m41 -188 l37 -90 -81 0 c-60 0 -79 3 -75 13 28 73 71
167 76 167 3 0 23 -41 43 -90z"/>
<path d="M1320 478 c-37 -25 -49 -60 -30 -83 18 -22 50 -1 50 33 0 33 16 52
45 52 30 0 55 -31 55 -68 0 -28 -5 -33 -71 -63 -39 -18 -77 -42 -85 -53 -22
-32 -18 -89 9 -114 31 -29 66 -28 111 3 45 30 44 30 48 3 4 -33 39 -34 77 -3
17 15 31 31 31 37 0 6 -6 6 -15 -2 -8 -7 -22 -10 -30 -6 -12 4 -15 27 -15 120
0 141 -9 157 -91 163 -45 4 -60 1 -89 -19z m120 -183 c0 -62 -1 -65 -31 -81
-45 -23 -79 -7 -79 39 0 41 14 59 65 86 22 11 41 20 43 21 1 0 2 -29 2 -65z"/>
</g>
</svg>
