<?xml version="1.0" standalone="no"?>
<!DOCTYPE svg PUBLIC "-//W3C//DTD SVG 20010904//EN"
 "http://www.w3.org/TR/2001/REC-SVG-20010904/DTD/svg10.dtd">
<svg version="1.0" xmlns="http://www.w3.org/2000/svg"
 width="165.951220pt" height="72.000000pt" viewBox="0 0 165.951220 72.000000"
 preserveAspectRatio="xMidYMid meet">
<metadata>
Created by potrace 1.15, written by Peter Selinger 2001-2017
</metadata>
<g transform="translate(0.000000,72.000000) scale(0.087805,-0.087805)"
fill="#000000" stroke="none">
<path d="M533 652 c-48 -18 -54 -29 -20 -34 22 -3 22 -4 25 -207 3 -231 1
-236 -61 -228 -48 7 -73 29 -149 132 l-59 79 38 19 c53 27 73 55 73 104 0 52
-36 98 -88 113 -20 5 -93 10 -162 9 -95 -1 -117 -3 -93 -10 21 -6 35 -17 38
-32 3 -12 4 -107 3 -212 l-3 -190 -35 -12 c-31 -11 -23 -12 75 -11 61 0 99 3
85 5 -45 9 -50 20 -50 119 0 93 0 94 25 94 19 0 39 -21 102 -110 l78 -110 150
1 c113 0 143 3 123 11 l-28 10 0 113 c0 111 1 114 26 134 35 28 70 27 89 -3
12 -18 15 -47 13 -132 -3 -104 -4 -109 -28 -121 -22 -11 -15 -13 60 -12 67 0
79 3 58 10 l-26 10 -4 124 c-3 107 -6 127 -24 152 -32 42 -82 43 -128 3 l-36
-32 0 116 c0 128 2 125 -67 98z m-258 -67 c34 -33 35 -102 3 -133 -27 -24 -70
-42 -104 -42 -24 0 -24 1 -24 100 l0 100 50 0 c41 0 56 -5 75 -25z"/>
<path d="M1440 648 c-43 -20 -44 -21 -20 -27 23 -6 25 -12 28 -75 3 -66 3 -67
-19 -55 -12 6 -41 9 -66 6 -146 -16 -190 -259 -59 -321 44 -21 63 -20 109 4
l37 20 0 -21 c0 -22 9 -21 79 9 35 15 35 15 11 22 l-25 6 -3 227 c-2 172 -5
227 -15 226 -6 0 -32 -10 -57 -21z m-20 -188 c27 -27 31 -51 28 -150 -3 -80
-4 -85 -30 -99 -75 -42 -146 63 -124 182 14 73 83 110 126 67z"/>
<path d="M950 481 c-74 -40 -105 -156 -63 -238 27 -51 63 -75 120 -80 39 -4
55 0 82 19 57 38 75 71 79 143 4 57 1 70 -21 104 -45 67 -127 89 -197 52z
m110 -29 c51 -52 65 -177 26 -236 -24 -37 -86 -37 -115 0 -29 37 -44 99 -39
163 4 44 10 59 32 78 36 30 61 29 96 -5z"/>
<path d="M1640 478 c-37 -25 -49 -60 -30 -83 18 -22 50 -1 50 33 0 33 16 52
45 52 30 0 55 -31 55 -68 0 -28 -5 -33 -71 -63 -39 -18 -77 -42 -85 -53 -22
-32 -18 -89 9 -114 31 -29 66 -28 111 3 45 30 44 30 48 3 4 -33 39 -34 77 -3
17 15 31 31 31 37 0 6 -6 6 -15 -2 -8 -7 -22 -10 -30 -6 -12 4 -15 27 -15 120
0 141 -9 157 -91 163 -45 4 -60 1 -89 -19z m120 -183 c0 -62 -1 -65 -31 -81
-45 -23 -79 -7 -79 39 0 41 14 59 65 86 22 11 41 20 43 21 1 0 2 -29 2 -65z"/>
</g>
</svg>
