<?xml version="1.0" standalone="no"?>
<!DOCTYPE svg PUBLIC "-//W3C//DTD SVG 20010904//EN"
 "http://www.w3.org/TR/2001/REC-SVG-20010904/DTD/svg10.dtd">
<svg version="1.0" xmlns="http://www.w3.org/2000/svg"
 width="88.682927pt" height="72.000000pt" viewBox="0 0 88.682927 72.000000"
 preserveAspectRatio="xMidYMid meet">
<metadata>
Created by potrace 1.15, written by Peter Selinger 2001-2017
</metadata>
<g transform="translate(0.000000,72.000000) scale(0.087805,-0.087805)"
fill="#000000" stroke="none">
<path d="M240 648 c-43 -20 -44 -21 -20 -27 23 -6 25 -12 28 -75 3 -66 3 -67
-19 -55 -12 6 -41 9 -66 6 -146 -16 -190 -259 -59 -321 44 -21 63 -20 109 4
l37 20 0 -21 c0 -22 9 -21 79 9 35 15 35 15 11 22 l-25 6 -3 227 c-2 172 -5
227 -15 226 -6 0 -32 -10 -57 -21z m-20 -188 c27 -27 31 -51 28 -150 -3 -80
-4 -85 -30 -99 -75 -42 -146 63 -124 182 14 73 83 110 126 67z"/>
<path d="M442 658 c-19 -19 -14 -46 9 -53 30 -10 58 19 43 43 -14 22 -36 26
-52 10z"/>
<path d="M890 560 c-7 -17 -28 -44 -47 -60 -32 -28 -35 -29 -58 -14 -21 14
-26 14 -53 0 -16 -8 -33 -23 -37 -33 -7 -15 -9 -13 -14 12 -7 33 -17 34 -78 8
-33 -15 -35 -18 -16 -21 30 -5 34 -26 31 -152 -3 -100 -4 -105 -28 -117 -22
-11 -15 -13 60 -13 75 0 82 2 60 13 -24 12 -25 17 -28 118 -2 93 0 109 17 130
17 21 22 22 40 12 28 -17 50 -16 57 2 4 9 19 15 35 15 l29 0 0 -130 c0 -117 2
-132 20 -150 27 -27 52 -25 89 6 37 31 41 51 6 28 -48 -32 -55 -17 -55 121 l0
125 35 0 c19 0 35 5 35 10 0 6 -16 10 -35 10 l-35 0 0 55 c0 61 -11 70 -30 25z"/>
<path d="M420 477 c-42 -19 -43 -21 -19 -24 23 -4 27 -10 33 -50 16 -116 4
-210 -28 -223 -14 -6 5 -9 59 -9 44 1 73 3 65 6 -35 12 -40 35 -40 180 0 108
-3 143 -12 142 -7 0 -33 -10 -58 -22z"/>
</g>
</svg>
