<?xml version="1.0" standalone="no"?>
<!DOCTYPE svg PUBLIC "-//W3C//DTD SVG 20010904//EN"
 "http://www.w3.org/TR/2001/REC-SVG-20010904/DTD/svg10.dtd">
<svg version="1.0" xmlns="http://www.w3.org/2000/svg"
 width="109.756098pt" height="72.000000pt" viewBox="0 0 109.756098 72.000000"
 preserveAspectRatio="xMidYMid meet">
<metadata>
Created by potrace 1.15, written by Peter Selinger 2001-2017
</metadata>
<g transform="translate(0.000000,72.000000) scale(0.087805,-0.087805)"
fill="#000000" stroke="none">
<path d="M573 652 c-48 -18 -54 -29 -20 -34 l22 -3 0 -210 0 -209 -25 -13
c-22 -11 -15 -13 60 -12 69 0 80 2 58 11 l-28 10 0 113 c0 111 1 114 26 134
35 28 70 27 89 -3 12 -18 15 -47 13 -132 -3 -104 -4 -109 -28 -121 -22 -11
-15 -13 60 -12 67 0 79 3 58 10 l-26 10 -4 124 c-3 107 -6 127 -24 152 -32 42
-82 43 -128 3 l-36 -32 0 116 c0 128 2 125 -67 98z"/>
<path d="M28 463 c17 -17 46 -78 76 -158 27 -72 52 -134 57 -139 4 -5 30 37
56 95 l49 103 39 -98 c22 -54 44 -99 49 -99 4 -1 33 61 63 138 30 77 64 150
75 162 l21 23 -54 0 c-41 -1 -50 -3 -36 -11 9 -5 17 -17 17 -26 0 -23 -61
-183 -70 -183 -9 0 -70 156 -70 179 0 10 10 23 23 29 18 9 5 11 -63 11 -59 0
-78 -3 -63 -9 22 -9 53 -58 53 -82 -1 -7 -15 -44 -33 -83 l-33 -69 -37 98
c-42 112 -44 121 -19 135 13 8 -1 10 -55 11 l-71 0 26 -27z"/>
<path d="M908 463 c20 -18 52 -72 90 -153 57 -122 58 -126 44 -160 -24 -59
-39 -70 -87 -63 -38 5 -44 3 -50 -16 -15 -48 36 -66 92 -31 38 23 50 45 133
250 36 90 73 164 87 178 l24 22 -58 0 c-44 -1 -54 -3 -40 -11 24 -14 22 -26
-20 -130 l-36 -92 -43 84 c-47 92 -53 123 -26 138 12 8 -4 10 -63 11 l-79 0
32 -27z"/>
</g>
</svg>
