<?xml version="1.0" standalone="no"?>
<!DOCTYPE svg PUBLIC "-//W3C//DTD SVG 20010904//EN"
 "http://www.w3.org/TR/2001/REC-SVG-20010904/DTD/svg10.dtd">
<svg version="1.0" xmlns="http://www.w3.org/2000/svg"
 width="127.317073pt" height="72.000000pt" viewBox="0 0 127.317073 72.000000"
 preserveAspectRatio="xMidYMid meet">
<metadata>
Created by potrace 1.15, written by Peter Selinger 2001-2017
</metadata>
<g transform="translate(0.000000,72.000000) scale(0.087805,-0.087805)"
fill="#000000" stroke="none">
<path d="M50 648 c-43 -20 -44 -21 -20 -27 l25 -7 3 -206 2 -205 38 -16 c71
-31 131 -26 177 14 50 44 65 78 65 147 0 127 -102 194 -185 121 l-35 -31 0
116 c0 129 2 127 -70 94z m197 -222 c24 -21 28 -32 31 -92 2 -56 -1 -75 -17
-101 -26 -41 -62 -51 -107 -30 l-34 17 0 100 c0 98 0 100 28 114 39 22 67 19
99 -8z"/>
<path d="M1313 652 c-53 -22 -63 -32 -30 -32 l27 0 0 -215 c0 -214 0 -216 -22
-225 -16 -6 2 -9 62 -8 47 0 76 2 65 5 -42 10 -45 26 -45 265 0 125 -3 228 -7
227 -5 0 -27 -8 -50 -17z"/>
<path d="M470 481 c-74 -40 -105 -156 -63 -238 27 -51 63 -75 120 -80 39 -4
55 0 82 19 57 38 75 71 79 143 4 57 1 70 -21 104 -45 67 -127 89 -197 52z
m110 -29 c51 -52 65 -177 26 -236 -24 -37 -86 -37 -115 0 -29 37 -44 99 -39
163 4 44 10 59 32 78 36 30 61 29 96 -5z"/>
<path d="M748 463 c17 -17 46 -78 76 -158 27 -72 52 -134 57 -139 4 -5 30 37
56 95 l49 103 39 -98 c22 -54 44 -99 49 -99 4 -1 33 61 63 138 30 77 64 150
75 162 l21 23 -54 0 c-41 -1 -50 -3 -36 -11 9 -5 17 -17 17 -26 0 -23 -61
-183 -70 -183 -9 0 -70 156 -70 179 0 10 10 23 23 29 18 9 5 11 -63 11 -59 0
-78 -3 -63 -9 22 -9 53 -58 53 -82 -1 -7 -15 -44 -33 -83 l-33 -69 -37 98
c-42 112 -44 121 -19 135 13 8 -1 10 -55 11 l-71 0 26 -27z"/>
</g>
</svg>
