<?xml version="1.0" standalone="no"?>
<!DOCTYPE svg PUBLIC "-//W3C//DTD SVG 20010904//EN"
 "http://www.w3.org/TR/2001/REC-SVG-20010904/DTD/svg10.dtd">
<svg version="1.0" xmlns="http://www.w3.org/2000/svg"
 width="151.902439pt" height="72.000000pt" viewBox="0 0 151.902439 72.000000"
 preserveAspectRatio="xMidYMid meet">
<metadata>
Created by potrace 1.15, written by Peter Selinger 2001-2017
</metadata>
<g transform="translate(0.000000,72.000000) scale(0.087805,-0.087805)"
fill="#000000" stroke="none">
<path d="M1242 658 c-19 -19 -14 -46 9 -53 30 -10 58 19 43 43 -14 22 -36 26
-52 10z"/>
<path d="M1400 648 c-43 -20 -44 -21 -20 -27 l25 -7 3 -206 2 -205 38 -16 c71
-31 131 -26 177 14 50 44 65 78 65 147 0 127 -102 194 -185 121 l-35 -31 0
116 c0 129 2 127 -70 94z m197 -222 c24 -21 28 -32 31 -92 2 -56 -1 -75 -17
-101 -26 -41 -62 -51 -107 -30 l-34 17 0 100 c0 98 0 100 28 114 39 22 67 19
99 -8z"/>
<path d="M40 618 l45 -23 3 -194 c3 -202 0 -216 -41 -224 -12 -2 16 -4 63 -4
47 0 75 2 63 4 -40 8 -44 23 -41 191 l3 161 150 -184 c83 -101 153 -184 158
-185 4 0 7 96 7 213 0 229 4 251 53 260 12 2 -18 5 -68 5 -82 1 -87 0 -55 -11
l35 -12 3 -164 3 -164 -78 94 c-42 52 -108 131 -145 177 l-69 82 -67 0 -66 0
44 -22z"/>
<path d="M631 482 c-56 -28 -75 -63 -79 -145 -2 -59 1 -78 17 -105 63 -100
192 -91 238 17 8 18 11 36 7 40 -4 3 -9 0 -12 -8 -3 -8 -15 -25 -28 -38 -63
-62 -174 3 -174 103 0 24 0 24 110 24 124 0 131 6 87 71 -40 59 -101 75 -166
41z m91 -29 c8 -10 18 -28 21 -40 5 -22 3 -23 -69 -23 -82 0 -90 8 -53 54 25
31 77 36 101 9z"/>
<path d="M1220 477 c-42 -19 -43 -21 -19 -24 23 -4 27 -10 33 -50 16 -116 4
-210 -28 -223 -14 -6 5 -9 59 -9 44 1 73 3 65 6 -35 12 -40 35 -40 180 0 108
-3 143 -12 142 -7 0 -33 -10 -58 -22z"/>
<path d="M880 443 l1 -48 13 31 c8 18 24 34 37 37 32 9 129 9 129 0 0 -3 -44
-65 -98 -137 -54 -72 -101 -137 -106 -143 -6 -10 25 -13 138 -13 l146 0 -1 53
c-1 50 -1 51 -10 19 -6 -21 -19 -36 -35 -42 -29 -11 -154 -14 -154 -3 0 4 47
69 105 144 58 76 105 140 105 143 0 3 -61 6 -135 6 l-135 0 0 -47z"/>
</g>
</svg>
