<?xml version="1.0" standalone="no"?>
<!DOCTYPE svg PUBLIC "-//W3C//DTD SVG 20010904//EN"
 "http://www.w3.org/TR/2001/REC-SVG-20010904/DTD/svg10.dtd">
<svg version="1.0" xmlns="http://www.w3.org/2000/svg"
 width="158.926829pt" height="72.000000pt" viewBox="0 0 158.926829 72.000000"
 preserveAspectRatio="xMidYMid meet">
<metadata>
Created by potrace 1.15, written by Peter Selinger 2001-2017
</metadata>
<g transform="translate(0.000000,72.000000) scale(0.087805,-0.087805)"
fill="#000000" stroke="none">
<path d="M682 658 c-19 -19 -14 -46 9 -53 30 -10 58 19 43 43 -14 22 -36 26
-52 10z"/>
<path d="M63 482 c-53 -22 -63 -32 -30 -32 l27 0 0 -200 0 -199 -28 -15 c-26
-14 -22 -15 63 -15 86 0 89 0 58 14 -32 14 -33 15 -33 81 0 59 2 65 18 58 39
-17 97 -15 129 5 67 42 98 173 59 249 -41 79 -124 94 -178 32 l-28 -30 0 35
c0 40 0 40 -57 17z m169 -43 c44 -24 64 -149 33 -209 -28 -54 -80 -65 -120
-25 -23 22 -25 32 -25 114 0 85 1 91 26 110 30 23 55 26 86 10z"/>
<path d="M423 481 c-51 -20 -63 -31 -35 -31 29 0 33 -23 30 -150 -3 -100 -4
-105 -28 -117 -22 -11 -15 -13 60 -13 75 0 82 2 60 13 -24 12 -25 17 -28 118
-2 92 0 109 17 130 17 21 21 22 44 10 31 -17 57 -8 57 18 0 48 -63 46 -102 -3
l-18 -21 0 27 c0 36 -8 39 -57 19z"/>
<path d="M660 477 c-42 -19 -43 -21 -19 -24 23 -4 27 -10 33 -50 16 -116 4
-210 -28 -223 -14 -6 5 -9 59 -9 44 1 73 3 65 6 -35 12 -40 35 -40 180 0 108
-3 143 -12 142 -7 0 -33 -10 -58 -22z"/>
<path d="M853 482 c-45 -17 -56 -32 -24 -32 27 0 31 -18 31 -134 0 -103 -7
-127 -40 -139 -8 -3 23 -5 70 -5 49 0 75 3 60 7 -25 7 -25 9 -28 124 l-3 117
33 20 c41 25 53 25 78 0 19 -19 20 -31 18 -133 -3 -108 -4 -112 -28 -124 -22
-11 -15 -13 60 -13 75 0 82 2 60 13 -24 12 -25 17 -30 133 -5 131 -19 168 -64
180 -32 8 -59 -2 -96 -33 l-30 -25 0 31 c0 35 -7 37 -67 13z"/>
<path d="M1271 483 c-53 -26 -83 -81 -83 -151 0 -64 15 -103 55 -140 53 -50
146 -33 187 33 32 53 25 70 -13 29 -26 -29 -40 -36 -70 -36 -47 0 -71 20 -93
78 -29 75 -2 160 55 179 29 9 58 -11 66 -44 8 -35 40 -50 62 -29 20 21 2 63
-36 83 -39 19 -87 19 -130 -2z"/>
<path d="M1591 482 c-56 -28 -75 -63 -79 -145 -2 -59 1 -78 17 -105 63 -100
192 -91 238 17 8 18 11 36 7 40 -4 3 -9 0 -12 -8 -3 -8 -15 -25 -28 -38 -63
-62 -174 3 -174 103 0 24 0 24 110 24 124 0 131 6 87 71 -40 59 -101 75 -166
41z m91 -29 c8 -10 18 -28 21 -40 5 -22 3 -23 -69 -23 -82 0 -90 8 -53 54 25
31 77 36 101 9z"/>
</g>
</svg>
