<?xml version="1.0" standalone="no"?>
<!DOCTYPE svg PUBLIC "-//W3C//DTD SVG 20010904//EN"
 "http://www.w3.org/TR/2001/REC-SVG-20010904/DTD/svg10.dtd">
<svg version="1.0" xmlns="http://www.w3.org/2000/svg"
 width="102.731707pt" height="72.000000pt" viewBox="0 0 102.731707 72.000000"
 preserveAspectRatio="xMidYMid meet">
<metadata>
Created by potrace 1.15, written by Peter Selinger 2001-2017
</metadata>
<g transform="translate(0.000000,72.000000) scale(0.087805,-0.087805)"
fill="#000000" stroke="none">
<path d="M30 633 c49 -9 50 -13 50 -222 0 -108 -4 -202 -9 -209 -4 -7 -21 -17
-37 -22 -42 -12 262 -12 308 0 49 14 98 71 98 113 0 47 -20 79 -64 103 -36 20
-37 22 -17 29 25 8 61 60 61 88 0 41 -33 89 -74 108 -35 16 -65 18 -191 17
-83 0 -139 -3 -125 -5z m260 -32 c42 -22 63 -71 48 -114 -17 -48 -53 -61 -155
-58 l-33 1 0 88 c0 49 3 92 7 95 13 14 99 6 133 -12z m-21 -207 c65 -13 104
-78 81 -135 -18 -42 -57 -59 -135 -59 l-65 0 0 100 0 100 44 0 c24 0 57 -3 75
-6z"/>
<path d="M501 479 c33 -12 39 -38 39 -171 0 -92 2 -101 25 -123 34 -35 76 -33
118 5 19 17 37 30 41 30 3 0 6 -14 6 -31 0 -34 5 -34 79 -1 35 16 35 16 10 20
-23 3 -27 9 -33 49 -3 25 -6 88 -6 139 l0 94 -52 0 c-45 -1 -50 -2 -33 -12 32
-18 35 -28 35 -129 0 -86 -2 -98 -22 -117 -32 -29 -69 -36 -93 -18 -18 13 -20
28 -23 145 l-4 131 -56 -1 c-49 0 -53 -2 -31 -10z"/>
<path d="M880 443 l1 -48 13 31 c8 18 24 34 37 37 32 9 129 9 129 0 0 -3 -44
-65 -98 -137 -54 -72 -101 -137 -106 -143 -6 -10 25 -13 138 -13 l146 0 -1 53
c-1 50 -1 51 -10 19 -6 -21 -19 -36 -35 -42 -29 -11 -154 -14 -154 -3 0 4 47
69 105 144 58 76 105 140 105 143 0 3 -61 6 -135 6 l-135 0 0 -47z"/>
</g>
</svg>
