<?xml version="1.0" standalone="no"?>
<!DOCTYPE svg PUBLIC "-//W3C//DTD SVG 20010904//EN"
 "http://www.w3.org/TR/2001/REC-SVG-20010904/DTD/svg10.dtd">
<svg version="1.0" xmlns="http://www.w3.org/2000/svg"
 width="320.487805pt" height="72.000000pt" viewBox="0 0 320.487805 72.000000"
 preserveAspectRatio="xMidYMid meet">
<metadata>
Created by potrace 1.15, written by Peter Selinger 2001-2017
</metadata>
<g transform="translate(0.000000,72.000000) scale(0.087805,-0.087805)"
fill="#000000" stroke="none">
<path d="M2802 658 c-19 -19 -14 -46 9 -53 30 -10 58 19 43 43 -14 22 -36 26
-52 10z"/>
<path d="M2340 621 c0 -16 -3 -43 -6 -60 -4 -18 -2 -31 4 -31 5 0 12 13 15 30
10 49 42 61 147 58 l91 -3 -147 -210 c-80 -115 -149 -215 -151 -222 -4 -10 37
-13 190 -13 l195 0 11 62 c12 72 8 84 -12 35 -25 -58 -47 -67 -174 -67 -62 0
-113 3 -113 6 0 3 65 99 143 213 79 113 147 212 151 219 6 9 -31 12 -168 12
l-176 0 0 -29z"/>
<path d="M40 622 l35 -17 3 -185 c1 -102 0 -195 -3 -207 -3 -15 -17 -26 -38
-32 -26 -7 -14 -9 58 -9 72 0 84 2 58 9 -21 6 -35 17 -38 32 -3 12 -4 94 -3
182 l3 160 89 -192 c49 -106 92 -193 96 -193 4 0 47 86 96 192 l89 192 3 -169
c1 -93 0 -175 -2 -182 -3 -7 -20 -16 -38 -22 -26 -7 -8 -9 77 -9 61 1 98 3 83
5 -14 2 -31 10 -37 17 -8 9 -11 81 -9 217 l3 204 35 12 c33 12 30 12 -39 10
l-74 -2 -81 -177 c-45 -98 -83 -178 -86 -178 -3 0 -43 81 -89 180 l-84 180
-71 0 -71 0 35 -18z"/>
<path d="M1810 560 c-7 -17 -28 -43 -46 -60 -41 -35 -42 -40 -9 -40 l25 0 0
-130 c0 -117 2 -132 20 -150 27 -27 52 -25 89 6 37 31 41 51 6 28 -48 -32 -55
-17 -55 121 l0 125 35 0 c19 0 35 5 35 10 0 6 -16 10 -35 10 l-35 0 0 55 c0
61 -11 70 -30 25z"/>
<path d="M750 481 c-74 -40 -105 -156 -63 -238 27 -51 63 -75 120 -80 39 -4
55 0 82 19 57 38 75 71 79 143 4 57 1 70 -21 104 -45 67 -127 89 -197 52z
m110 -29 c51 -52 65 -177 26 -236 -24 -37 -86 -37 -115 0 -29 37 -44 99 -39
163 4 44 10 59 32 78 36 30 61 29 96 -5z"/>
<path d="M1413 482 c-45 -17 -56 -32 -24 -32 27 0 31 -18 31 -134 0 -103 -7
-127 -40 -139 -8 -3 23 -5 70 -5 49 0 75 3 60 7 -25 7 -25 9 -28 124 l-3 117
33 20 c41 25 53 25 78 0 19 -19 20 -31 18 -133 -3 -108 -4 -112 -28 -124 -22
-11 -15 -13 60 -13 75 0 82 2 60 13 -24 12 -25 17 -30 133 -5 131 -19 168 -64
180 -32 8 -59 -2 -96 -33 l-30 -25 0 31 c0 35 -7 37 -67 13z"/>
<path d="M2780 477 c-42 -19 -43 -21 -19 -24 23 -4 27 -10 33 -50 16 -116 4
-210 -28 -223 -14 -6 5 -9 59 -9 44 1 73 3 65 6 -35 12 -40 35 -40 180 0 108
-3 143 -12 142 -7 0 -33 -10 -58 -22z"/>
<path d="M3030 481 c-74 -40 -105 -156 -63 -238 27 -51 63 -75 120 -80 39 -4
55 0 82 19 57 38 75 71 79 143 4 57 1 70 -21 104 -45 67 -127 89 -197 52z
m110 -29 c51 -52 65 -177 26 -236 -24 -37 -86 -37 -115 0 -29 37 -44 99 -39
163 4 44 10 59 32 78 36 30 61 29 96 -5z"/>
<path d="M3333 482 c-45 -17 -56 -32 -24 -32 27 0 31 -18 31 -134 0 -103 -7
-127 -40 -139 -8 -3 23 -5 70 -5 49 0 75 3 60 7 -25 7 -25 9 -28 124 l-3 117
33 20 c41 25 53 25 78 0 19 -19 20 -31 18 -133 -3 -108 -4 -112 -28 -124 -22
-11 -15 -13 60 -13 75 0 82 2 60 13 -24 12 -25 17 -30 133 -5 131 -19 168 -64
180 -32 8 -59 -2 -96 -33 l-30 -25 0 31 c0 35 -7 37 -67 13z"/>
<path d="M1021 479 c33 -12 39 -38 39 -171 0 -92 2 -101 25 -123 34 -35 76
-33 118 5 19 17 37 30 41 30 3 0 6 -14 6 -31 0 -34 5 -34 79 -1 35 16 35 16
10 20 -23 3 -27 9 -33 49 -3 25 -6 88 -6 139 l0 94 -52 0 c-45 -1 -50 -2 -33
-12 32 -18 35 -28 35 -129 0 -86 -2 -98 -22 -117 -32 -29 -69 -36 -93 -18 -18
13 -20 28 -23 145 l-4 131 -56 -1 c-49 0 -53 -2 -31 -10z"/>
<path d="M1910 35 c0 -13 28 -15 190 -15 162 0 190 2 190 15 0 13 -28 15 -190
15 -162 0 -190 -2 -190 -15z"/>
</g>
</svg>
