<?xml version="1.0" standalone="no"?>
<!DOCTYPE svg PUBLIC "-//W3C//DTD SVG 20010904//EN"
 "http://www.w3.org/TR/2001/REC-SVG-20010904/DTD/svg10.dtd">
<svg version="1.0" xmlns="http://www.w3.org/2000/svg"
 width="137.853659pt" height="72.000000pt" viewBox="0 0 137.853659 72.000000"
 preserveAspectRatio="xMidYMid meet">
<metadata>
Created by potrace 1.15, written by Peter Selinger 2001-2017
</metadata>
<g transform="translate(0.000000,72.000000) scale(0.087805,-0.087805)"
fill="#000000" stroke="none">
<path d="M522 658 c-19 -19 -14 -46 9 -53 30 -10 58 19 43 43 -14 22 -36 26
-52 10z"/>
<path d="M690 648 c-43 -20 -44 -21 -20 -27 l25 -7 0 -209 0 -209 -25 -13
c-22 -11 -15 -13 60 -12 50 1 75 4 60 8 -24 6 -25 11 -28 86 l-3 79 55 -70
c57 -71 65 -89 44 -97 -7 -3 23 -6 67 -6 78 -1 79 0 50 15 -16 8 -59 51 -94
95 l-64 80 48 49 c27 27 67 56 89 64 l41 14 -74 1 c-66 1 -72 -1 -60 -15 11
-13 4 -23 -44 -72 l-57 -57 0 163 c0 123 -3 162 -12 161 -7 0 -33 -10 -58 -21z"/>
<path d="M1053 652 c-48 -18 -54 -29 -20 -34 l22 -3 0 -210 0 -209 -25 -13
c-22 -11 -15 -13 60 -12 69 0 80 2 58 11 l-28 10 0 113 c0 111 1 114 26 134
35 28 70 27 89 -3 12 -18 15 -47 13 -132 -3 -104 -4 -109 -28 -121 -22 -11
-15 -13 60 -12 67 0 79 3 58 10 l-26 10 -4 124 c-3 107 -6 127 -24 152 -32 42
-82 43 -128 3 l-36 -32 0 116 c0 128 2 125 -67 98z"/>
<path d="M1442 658 c-19 -19 -14 -46 9 -53 30 -10 58 19 43 43 -14 22 -36 26
-52 10z"/>
<path d="M40 627 l35 -12 0 -210 0 -210 -35 -12 c-30 -10 -5 -12 155 -12 l191
-1 13 48 c24 85 24 89 3 57 -39 -60 -58 -70 -143 -74 -53 -2 -84 1 -94 9 -12
10 -15 47 -15 200 0 203 0 203 57 220 19 6 -8 8 -87 9 -102 0 -111 -2 -80 -12z"/>
<path d="M500 477 c-42 -19 -43 -21 -19 -24 23 -4 27 -10 33 -50 16 -116 4
-210 -28 -223 -14 -6 5 -9 59 -9 44 1 73 3 65 6 -35 12 -40 35 -40 180 0 108
-3 143 -12 142 -7 0 -33 -10 -58 -22z"/>
<path d="M1420 477 c-42 -19 -43 -21 -19 -24 23 -4 27 -10 33 -50 16 -116 4
-210 -28 -223 -14 -6 5 -9 59 -9 44 1 73 3 65 6 -35 12 -40 35 -40 180 0 108
-3 143 -12 142 -7 0 -33 -10 -58 -22z"/>
</g>
</svg>
