<?xml version="1.0" standalone="no"?>
<!DOCTYPE svg PUBLIC "-//W3C//DTD SVG 20010904//EN"
 "http://www.w3.org/TR/2001/REC-SVG-20010904/DTD/svg10.dtd">
<svg version="1.0" xmlns="http://www.w3.org/2000/svg"
 width="256.390244pt" height="72.000000pt" viewBox="0 0 256.390244 72.000000"
 preserveAspectRatio="xMidYMid meet">
<metadata>
Created by potrace 1.15, written by Peter Selinger 2001-2017
</metadata>
<g transform="translate(0.000000,72.000000) scale(0.087805,-0.087805)"
fill="#000000" stroke="none">
<path d="M2603 652 c-48 -18 -54 -29 -20 -34 l22 -3 0 -210 0 -209 -25 -13
c-22 -11 -15 -13 60 -12 69 0 80 2 58 11 l-28 10 0 113 c0 111 1 114 26 134
35 28 70 27 89 -3 12 -18 15 -47 13 -132 -3 -104 -4 -109 -28 -121 -22 -11
-15 -13 60 -12 67 0 79 3 58 10 l-26 10 -4 124 c-3 107 -6 127 -24 152 -32 42
-82 43 -128 3 l-36 -32 0 116 c0 128 2 125 -67 98z"/>
<path d="M26 603 c-8 -54 -7 -73 4 -73 6 0 10 9 10 20 0 38 35 60 95 60 l55 0
0 -187 c0 -104 -3 -198 -6 -211 -4 -14 -18 -25 -38 -31 -23 -7 -5 -9 74 -9 79
0 97 2 74 9 -41 12 -44 28 -44 250 l0 179 51 0 c62 0 85 -12 103 -53 l14 -32
1 58 1 57 -194 0 -193 0 -7 -37z"/>
<path d="M874 496 c-74 -32 -97 -117 -48 -175 l26 -31 -26 -31 c-30 -36 -32
-46 -10 -70 15 -17 14 -21 -15 -55 -18 -20 -31 -43 -29 -52 4 -24 86 -62 133
-62 101 0 185 56 185 122 0 57 -26 72 -134 76 -50 2 -95 7 -99 12 -5 4 -6 17
-2 29 5 18 14 21 58 21 92 0 143 48 134 126 -4 40 -3 43 21 46 47 6 38 28 -11
28 -24 0 -61 7 -80 15 -44 18 -63 18 -103 1z m76 -16 c10 -5 23 -24 29 -41 26
-74 3 -139 -48 -139 -41 0 -64 31 -69 94 -4 45 -1 57 17 75 23 23 43 26 71 11z
m109 -335 c12 -12 12 -17 -2 -39 -31 -47 -155 -59 -214 -21 -27 18 -29 32 -7
64 16 22 20 22 113 16 58 -4 102 -12 110 -20z"/>
<path d="M500 481 c-74 -40 -105 -156 -63 -238 27 -51 63 -75 120 -80 39 -4
55 0 82 19 57 38 75 71 79 143 4 57 1 70 -21 104 -45 67 -127 89 -197 52z
m110 -29 c51 -52 65 -177 26 -236 -24 -37 -86 -37 -115 0 -29 37 -44 99 -39
163 4 44 10 59 32 78 36 30 61 29 96 -5z"/>
<path d="M1190 478 c-37 -25 -49 -60 -30 -83 18 -22 50 -1 50 33 0 33 16 52
45 52 30 0 55 -31 55 -68 0 -28 -5 -33 -71 -63 -39 -18 -77 -42 -85 -53 -22
-32 -18 -89 9 -114 31 -29 66 -28 111 3 45 30 44 30 48 3 4 -33 39 -34 77 -3
17 15 31 31 31 37 0 6 -6 6 -15 -2 -8 -7 -22 -10 -30 -6 -12 4 -15 27 -15 120
0 141 -9 157 -91 163 -45 4 -60 1 -89 -19z m120 -183 c0 -62 -1 -65 -31 -81
-45 -23 -79 -7 -79 39 0 41 14 59 65 86 22 11 41 20 43 21 1 0 2 -29 2 -65z"/>
<path d="M1493 481 c-51 -20 -63 -31 -35 -31 29 0 33 -23 30 -150 -3 -100 -4
-105 -28 -117 -22 -11 -15 -13 60 -13 75 0 82 2 60 13 -24 12 -25 17 -28 118
-2 92 0 109 17 130 17 21 21 22 44 10 31 -17 57 -8 57 18 0 48 -63 46 -102 -3
l-18 -21 0 27 c0 36 -8 39 -57 19z"/>
<path d="M1720 478 c-43 -20 -44 -21 -20 -27 25 -7 25 -7 25 -131 0 -123 0
-125 -25 -137 -22 -11 -15 -13 60 -13 75 0 82 2 60 13 -24 12 -25 15 -25 127
l0 114 33 19 c71 42 102 -1 102 -140 0 -86 -11 -120 -42 -126 -13 -2 18 -4 67
-4 50 -1 81 1 70 4 -37 9 -45 32 -45 133 0 88 2 98 23 118 13 12 37 24 54 28
52 10 64 -21 61 -152 -3 -104 -4 -109 -28 -121 -22 -11 -15 -13 60 -13 75 0
82 2 60 13 -24 12 -25 16 -30 141 -5 125 -6 128 -33 152 -15 13 -39 24 -53 24
-29 0 -75 -22 -93 -44 -12 -14 -16 -12 -41 14 -41 44 -90 39 -147 -13 l-23
-20 0 31 c0 37 -8 38 -70 10z"/>
<path d="M2310 478 c-37 -25 -49 -60 -30 -83 18 -22 50 -1 50 33 0 33 16 52
45 52 30 0 55 -31 55 -68 0 -28 -5 -33 -71 -63 -39 -18 -77 -42 -85 -53 -22
-32 -18 -89 9 -114 31 -29 66 -28 111 3 45 30 44 30 48 3 4 -33 39 -34 77 -3
17 15 31 31 31 37 0 6 -6 6 -15 -2 -8 -7 -22 -10 -30 -6 -12 4 -15 27 -15 120
0 141 -9 157 -91 163 -45 4 -60 1 -89 -19z m120 -183 c0 -62 -1 -65 -31 -81
-45 -23 -79 -7 -79 39 0 41 14 59 65 86 22 11 41 20 43 21 1 0 2 -29 2 -65z"/>
</g>
</svg>
