<?xml version="1.0" standalone="no"?>
<!DOCTYPE svg PUBLIC "-//W3C//DTD SVG 20010904//EN"
 "http://www.w3.org/TR/2001/REC-SVG-20010904/DTD/svg10.dtd">
<svg version="1.0" xmlns="http://www.w3.org/2000/svg"
 width="151.902439pt" height="72.000000pt" viewBox="0 0 151.902439 72.000000"
 preserveAspectRatio="xMidYMid meet">
<metadata>
Created by potrace 1.15, written by Peter Selinger 2001-2017
</metadata>
<g transform="translate(0.000000,72.000000) scale(0.087805,-0.087805)"
fill="#000000" stroke="none">
<path d="M20 641 c0 -5 12 -11 28 -13 l27 -3 0 -215 0 -215 -35 -12 c-29 -10
-4 -12 154 -10 l188 2 19 50 c23 60 24 77 3 50 -54 -74 -59 -76 -158 -73 l-91
3 -3 98 -3 97 73 0 c83 0 91 -4 106 -45 9 -26 11 -17 11 60 l1 90 -18 -35 -17
-35 -77 -3 -78 -3 0 96 0 95 90 0 c77 0 93 -3 110 -20 11 -11 20 -29 20 -40 0
-11 5 -20 11 -20 8 0 10 13 5 38 -3 20 -6 45 -6 55 0 16 -15 17 -180 17 -105
0 -180 -4 -180 -9z"/>
<path d="M1610 560 c-7 -17 -28 -43 -46 -60 -41 -35 -42 -40 -9 -40 l25 0 0
-130 c0 -117 2 -132 20 -150 27 -27 52 -25 89 6 37 31 41 51 6 28 -48 -32 -55
-17 -55 121 l0 125 35 0 c19 0 35 5 35 10 0 6 -16 10 -35 10 l-35 0 0 55 c0
61 -11 70 -30 25z"/>
<path d="M564 496 c-74 -32 -97 -117 -48 -175 l26 -31 -26 -31 c-30 -36 -32
-46 -10 -70 15 -17 14 -21 -15 -55 -18 -20 -31 -43 -29 -52 4 -24 86 -62 133
-62 101 0 185 56 185 122 0 57 -26 72 -134 76 -50 2 -95 7 -99 12 -5 4 -6 17
-2 29 5 18 14 21 58 21 92 0 143 48 134 126 -4 40 -3 43 21 46 47 6 38 28 -11
28 -24 0 -61 7 -80 15 -44 18 -63 18 -103 1z m76 -16 c10 -5 23 -24 29 -41 26
-74 3 -139 -48 -139 -41 0 -64 31 -69 94 -4 45 -1 57 17 75 23 23 43 26 71 11z
m109 -335 c12 -12 12 -17 -2 -39 -31 -47 -155 -59 -214 -21 -27 18 -29 32 -7
64 16 22 20 22 113 16 58 -4 102 -12 110 -20z"/>
<path d="M1213 482 c-53 -22 -63 -32 -30 -32 l27 0 0 -200 0 -199 -27 -15
c-27 -14 -23 -15 62 -15 86 0 89 0 58 14 -32 14 -33 15 -33 81 0 59 2 65 18
58 39 -17 97 -15 129 5 67 42 98 173 59 249 -41 79 -124 94 -178 32 l-28 -30
0 35 c0 40 0 40 -57 17z m169 -43 c44 -24 64 -149 33 -209 -28 -54 -80 -65
-120 -25 -23 22 -25 32 -25 114 0 85 1 91 26 110 30 23 55 26 86 10z"/>
<path d="M828 463 c20 -18 52 -72 90 -153 57 -122 58 -126 44 -160 -24 -59
-39 -70 -87 -63 -38 5 -44 3 -50 -16 -15 -48 36 -66 92 -31 38 23 50 45 133
250 36 90 73 164 87 178 l24 22 -58 0 c-44 -1 -54 -3 -40 -11 24 -14 22 -26
-20 -130 l-36 -92 -43 84 c-47 92 -53 123 -26 138 12 8 -4 10 -63 11 l-79 0
32 -27z"/>
</g>
</svg>
