<?xml version="1.0" standalone="no"?>
<!DOCTYPE svg PUBLIC "-//W3C//DTD SVG 20010904//EN"
 "http://www.w3.org/TR/2001/REC-SVG-20010904/DTD/svg10.dtd">
<svg version="1.0" xmlns="http://www.w3.org/2000/svg"
 width="397.756098pt" height="72.000000pt" viewBox="0 0 397.756098 72.000000"
 preserveAspectRatio="xMidYMid meet">
<metadata>
Created by potrace 1.15, written by Peter Selinger 2001-2017
</metadata>
<g transform="translate(0.000000,72.000000) scale(0.087805,-0.087805)"
fill="#000000" stroke="none">
<path d="M50 648 c-43 -20 -44 -21 -20 -27 l25 -7 3 -206 2 -205 38 -16 c71
-31 131 -26 177 14 50 44 65 78 65 147 0 127 -102 194 -185 121 l-35 -31 0
116 c0 129 2 127 -70 94z m197 -222 c24 -21 28 -32 31 -92 2 -56 -1 -75 -17
-101 -26 -41 -62 -51 -107 -30 l-34 17 0 100 c0 98 0 100 28 114 39 22 67 19
99 -8z"/>
<path d="M471 482 c-56 -28 -75 -63 -79 -145 -2 -59 1 -78 17 -105 63 -100
192 -91 238 17 8 18 11 36 7 40 -4 3 -9 0 -12 -8 -3 -8 -15 -25 -28 -38 -63
-62 -174 3 -174 103 0 24 0 24 110 24 124 0 131 6 87 71 -40 59 -101 75 -166
41z m91 -29 c8 -10 18 -28 21 -40 5 -22 3 -23 -69 -23 -82 0 -90 8 -53 54 25
31 77 36 101 9z"/>
<path d="M791 483 c-53 -26 -83 -81 -83 -151 0 -64 15 -103 55 -140 53 -50
146 -33 187 33 32 53 25 70 -13 29 -26 -29 -40 -36 -70 -36 -47 0 -71 20 -93
78 -29 75 -2 160 55 179 29 9 58 -11 66 -44 8 -35 40 -50 62 -29 20 21 2 63
-36 83 -39 19 -87 19 -130 -2z"/>
<path d="M1110 481 c-74 -40 -105 -156 -63 -238 27 -51 63 -75 120 -80 39 -4
55 0 82 19 57 38 75 71 79 143 4 57 1 70 -21 104 -45 67 -127 89 -197 52z
m110 -29 c51 -52 65 -177 26 -236 -24 -37 -86 -37 -115 0 -29 37 -44 99 -39
163 4 44 10 59 32 78 36 30 61 29 96 -5z"/>
<path d="M1410 478 c-43 -20 -44 -21 -20 -27 25 -7 25 -7 25 -131 0 -123 0
-125 -25 -137 -22 -11 -15 -13 60 -13 75 0 82 2 60 13 -24 12 -25 15 -25 127
l0 114 33 19 c71 42 102 -1 102 -140 0 -86 -11 -120 -42 -126 -13 -2 18 -4 67
-4 50 -1 81 1 70 4 -37 9 -45 32 -45 133 0 88 2 98 23 118 13 12 37 24 54 28
52 10 64 -21 61 -152 -3 -104 -4 -109 -28 -121 -22 -11 -15 -13 60 -13 75 0
82 2 60 13 -24 12 -25 16 -30 141 -5 125 -6 128 -33 152 -15 13 -39 24 -53 24
-29 0 -75 -22 -93 -44 -12 -14 -16 -12 -41 14 -41 44 -90 39 -147 -13 l-23
-20 0 31 c0 37 -8 38 -70 10z"/>
<path d="M2031 482 c-56 -28 -75 -63 -79 -145 -2 -59 1 -78 17 -105 63 -100
192 -91 238 17 8 18 11 36 7 40 -4 3 -9 0 -12 -8 -3 -8 -15 -25 -28 -38 -63
-62 -174 3 -174 103 0 24 0 24 110 24 124 0 131 6 87 71 -40 59 -101 75 -166
41z m91 -29 c8 -10 18 -28 21 -40 5 -22 3 -23 -69 -23 -82 0 -90 8 -53 54 25
31 77 36 101 9z"/>
<path d="M2653 482 c-53 -22 -63 -32 -30 -32 l27 0 0 -200 c0 -189 -1 -200
-20 -210 -14 -7 -20 -7 -20 0 0 6 -66 10 -190 10 -162 0 -190 -2 -190 -15 0
-13 37 -15 273 -15 243 1 269 2 240 15 -32 14 -33 15 -33 81 0 59 2 65 18 58
39 -17 97 -15 129 5 67 42 98 173 59 249 -41 79 -124 94 -178 32 l-28 -30 0
35 c0 40 0 40 -57 17z m169 -43 c44 -24 64 -149 33 -209 -28 -54 -80 -65 -120
-25 -23 22 -25 32 -25 114 0 85 1 91 26 110 30 23 55 26 86 10z"/>
<path d="M3071 482 c-56 -28 -75 -63 -79 -145 -2 -59 1 -78 17 -105 63 -100
192 -91 238 17 8 18 11 36 7 40 -4 3 -9 0 -12 -8 -3 -8 -15 -25 -28 -38 -63
-62 -174 3 -174 103 0 24 0 24 110 24 124 0 131 6 87 71 -40 59 -101 75 -166
41z m91 -29 c8 -10 18 -28 21 -40 5 -22 3 -23 -69 -23 -82 0 -90 8 -53 54 25
31 77 36 101 9z"/>
<path d="M3343 481 c-51 -20 -63 -31 -35 -31 29 0 33 -23 30 -150 -3 -100 -4
-105 -28 -117 -22 -11 -15 -13 60 -13 75 0 82 2 60 13 -24 12 -25 17 -28 118
-2 92 0 109 17 130 17 21 21 22 44 10 31 -17 57 -8 57 18 0 48 -63 46 -102 -3
l-18 -21 0 27 c0 36 -8 39 -57 19z"/>
<path d="M3605 488 c-32 -18 -44 -40 -45 -78 0 -48 8 -57 87 -104 56 -34 69
-46 71 -71 10 -82 -106 -67 -144 19 -13 31 -13 31 -14 -26 l0 -56 64 -7 c97
-11 146 22 146 98 0 39 -23 64 -90 97 -61 30 -80 49 -80 77 0 15 9 27 25 35
37 17 76 0 97 -40 25 -51 28 -50 28 9 l0 54 -63 2 c-34 1 -71 -3 -82 -9z"/>
<path d="M3910 481 c-74 -40 -105 -156 -63 -238 27 -51 63 -75 120 -80 39 -4
55 0 82 19 57 38 75 71 79 143 4 57 1 70 -21 104 -45 67 -127 89 -197 52z
m110 -29 c51 -52 65 -177 26 -236 -24 -37 -86 -37 -115 0 -29 37 -44 99 -39
163 4 44 10 59 32 78 36 30 61 29 96 -5z"/>
<path d="M4213 482 c-45 -17 -56 -32 -24 -32 27 0 31 -18 31 -134 0 -103 -7
-127 -40 -139 -8 -3 23 -5 70 -5 49 0 75 3 60 7 -25 7 -25 9 -28 124 l-3 117
33 20 c41 25 53 25 78 0 19 -19 20 -31 18 -133 -3 -108 -4 -112 -28 -124 -22
-11 -15 -13 60 -13 75 0 82 2 60 13 -24 12 -25 17 -30 133 -5 131 -19 168 -64
180 -32 8 -59 -2 -96 -33 l-30 -25 0 31 c0 35 -7 37 -67 13z"/>
</g>
</svg>
