<?xml version="1.0" standalone="no"?>
<!DOCTYPE svg PUBLIC "-//W3C//DTD SVG 20010904//EN"
 "http://www.w3.org/TR/2001/REC-SVG-20010904/DTD/svg10.dtd">
<svg version="1.0" xmlns="http://www.w3.org/2000/svg"
 width="226.536585pt" height="72.000000pt" viewBox="0 0 226.536585 72.000000"
 preserveAspectRatio="xMidYMid meet">
<metadata>
Created by potrace 1.15, written by Peter Selinger 2001-2017
</metadata>
<g transform="translate(0.000000,72.000000) scale(0.087805,-0.087805)"
fill="#000000" stroke="none">
<path d="M492 658 c-19 -19 -14 -46 9 -53 30 -10 58 19 43 43 -14 22 -36 26
-52 10z"/>
<path d="M903 652 c-48 -18 -54 -29 -20 -34 l22 -3 0 -210 0 -209 -25 -13
c-22 -11 -15 -13 60 -12 69 0 80 2 58 11 l-28 10 0 113 c0 111 1 114 26 134
35 28 70 27 89 -3 12 -18 15 -47 13 -132 -3 -104 -4 -109 -28 -121 -22 -11
-15 -13 60 -12 67 0 79 3 58 10 l-26 10 -4 124 c-3 107 -6 127 -24 152 -32 42
-82 43 -128 3 l-36 -32 0 116 c0 128 2 125 -67 98z"/>
<path d="M2263 652 c-48 -18 -54 -29 -20 -34 l22 -3 0 -210 0 -209 -25 -13
c-22 -11 -15 -13 60 -12 69 0 80 2 58 11 l-28 10 0 113 c0 111 1 114 26 134
35 28 70 27 89 -3 12 -18 15 -47 13 -132 -3 -104 -4 -109 -28 -121 -22 -11
-15 -13 60 -12 67 0 79 3 58 10 l-26 10 -4 124 c-3 107 -6 127 -24 152 -32 42
-82 43 -128 3 l-36 -32 0 116 c0 128 2 125 -67 98z"/>
<path d="M26 603 c-8 -54 -7 -73 4 -73 6 0 10 9 10 20 0 38 35 60 95 60 l55 0
0 -187 c0 -104 -3 -198 -6 -211 -4 -14 -18 -25 -38 -31 -23 -7 -5 -9 74 -9 79
0 97 2 74 9 -41 12 -44 28 -44 250 l0 179 51 0 c62 0 85 -12 103 -53 l14 -32
1 58 1 57 -194 0 -193 0 -7 -37z"/>
<path d="M470 477 c-42 -19 -43 -21 -19 -24 23 -4 27 -10 33 -50 16 -116 4
-210 -28 -223 -14 -6 5 -9 59 -9 44 1 73 3 65 6 -35 12 -40 35 -40 180 0 108
-3 143 -12 142 -7 0 -33 -10 -58 -22z"/>
<path d="M673 481 c-51 -20 -63 -31 -35 -31 29 0 33 -23 30 -150 -3 -100 -4
-105 -28 -117 -22 -11 -15 -13 60 -13 75 0 82 2 60 13 -24 12 -25 17 -28 118
-2 92 0 109 17 130 17 21 21 22 44 10 31 -17 57 -8 57 18 0 48 -63 46 -102 -3
l-18 -21 0 27 c0 36 -8 39 -57 19z"/>
<path d="M1290 478 c-37 -25 -49 -60 -30 -83 18 -22 50 -1 50 33 0 33 16 52
45 52 30 0 55 -31 55 -68 0 -28 -5 -33 -71 -63 -39 -18 -77 -42 -85 -53 -22
-32 -18 -89 9 -114 31 -29 66 -28 111 3 45 30 44 30 48 3 4 -33 39 -34 77 -3
17 15 31 31 31 37 0 6 -6 6 -15 -2 -8 -7 -22 -10 -30 -6 -12 4 -15 27 -15 120
0 141 -9 157 -91 163 -45 4 -60 1 -89 -19z m120 -183 c0 -62 -1 -65 -31 -81
-45 -23 -79 -7 -79 39 0 41 14 59 65 86 22 11 41 20 43 21 1 0 2 -29 2 -65z"/>
<path d="M1583 482 c-45 -17 -56 -32 -24 -32 27 0 31 -18 31 -134 0 -103 -7
-127 -40 -139 -8 -3 23 -5 70 -5 49 0 75 3 60 7 -25 7 -25 9 -28 124 l-3 117
33 20 c41 25 53 25 78 0 19 -19 20 -31 18 -133 -3 -108 -4 -112 -28 -124 -22
-11 -15 -13 60 -13 75 0 82 2 60 13 -24 12 -25 17 -30 133 -5 131 -19 168 -64
180 -32 8 -59 -2 -96 -33 l-30 -25 0 31 c0 35 -7 37 -67 13z"/>
<path d="M1970 478 c-37 -25 -49 -60 -30 -83 18 -22 50 -1 50 33 0 33 16 52
45 52 30 0 55 -31 55 -68 0 -28 -5 -33 -71 -63 -39 -18 -77 -42 -85 -53 -22
-32 -18 -89 9 -114 31 -29 66 -28 111 3 45 30 44 30 48 3 4 -33 39 -34 77 -3
17 15 31 31 31 37 0 6 -6 6 -15 -2 -8 -7 -22 -10 -30 -6 -12 4 -15 27 -15 120
0 141 -9 157 -91 163 -45 4 -60 1 -89 -19z m120 -183 c0 -62 -1 -65 -31 -81
-45 -23 -79 -7 -79 39 0 41 14 59 65 86 22 11 41 20 43 21 1 0 2 -29 2 -65z"/>
</g>
</svg>
