<?xml version="1.0" standalone="no"?>
<!DOCTYPE svg PUBLIC "-//W3C//DTD SVG 20010904//EN"
 "http://www.w3.org/TR/2001/REC-SVG-20010904/DTD/svg10.dtd">
<svg version="1.0" xmlns="http://www.w3.org/2000/svg"
 width="183.512195pt" height="72.000000pt" viewBox="0 0 183.512195 72.000000"
 preserveAspectRatio="xMidYMid meet">
<metadata>
Created by potrace 1.15, written by Peter Selinger 2001-2017
</metadata>
<g transform="translate(0.000000,72.000000) scale(0.087805,-0.087805)"
fill="#000000" stroke="none">
<path d="M175 636 c-172 -75 -199 -343 -43 -439 60 -37 141 -46 202 -23 44 17
116 84 116 109 0 6 -12 -3 -27 -22 -31 -40 -94 -70 -144 -71 -56 0 -119 39
-146 90 -33 63 -33 184 1 257 61 129 218 123 289 -12 l16 -30 1 62 c0 34 -3
69 -6 78 -6 14 -8 14 -24 0 -15 -14 -21 -14 -53 0 -44 18 -141 19 -182 1z"/>
<path d="M893 482 c-53 -22 -63 -32 -30 -32 l27 0 0 -200 0 -199 -27 -15 c-27
-14 -23 -15 62 -15 86 0 89 0 58 14 -32 14 -33 15 -33 81 0 59 2 65 18 58 39
-17 97 -15 129 5 67 42 98 173 59 249 -41 79 -124 94 -178 32 l-28 -30 0 35
c0 40 0 40 -57 17z m169 -43 c44 -24 64 -149 33 -209 -28 -54 -80 -65 -120
-25 -23 22 -25 32 -25 114 0 85 1 91 26 110 30 23 55 26 86 10z"/>
<path d="M1263 481 c-51 -20 -63 -31 -35 -31 29 0 33 -23 30 -150 -3 -100 -4
-105 -28 -117 -22 -11 -15 -13 60 -13 75 0 82 2 60 13 -24 12 -25 17 -28 118
-2 92 0 109 17 130 17 21 21 22 44 10 32 -17 57 -8 57 19 0 21 16 26 40 10 11
-7 16 -40 20 -140 5 -123 7 -133 29 -151 34 -28 75 -24 114 11 19 16 37 30 41
30 3 0 6 -14 6 -31 0 -34 5 -34 79 -1 35 16 35 16 10 20 -23 3 -27 9 -33 49
-3 25 -6 88 -6 139 l0 94 -52 0 c-45 -1 -50 -2 -33 -12 32 -18 35 -28 35 -129
0 -86 -2 -98 -22 -117 -32 -29 -69 -36 -93 -18 -18 13 -20 28 -23 146 l-4 131
-62 -2 c-35 -1 -68 1 -74 5 -15 9 -52 -10 -74 -38 l-18 -21 0 27 c0 36 -8 39
-57 19z"/>
<path d="M1885 488 c-32 -18 -44 -40 -45 -78 0 -48 8 -57 87 -104 56 -34 69
-46 71 -71 10 -82 -106 -67 -144 19 -13 31 -13 31 -14 -26 l0 -56 64 -7 c97
-11 146 22 146 98 0 39 -23 64 -90 97 -61 30 -80 49 -80 77 0 15 9 27 25 35
37 17 76 0 97 -40 25 -51 28 -50 28 9 l0 54 -63 2 c-34 1 -71 -3 -82 -9z"/>
<path d="M508 463 c20 -18 52 -72 90 -153 57 -122 58 -126 44 -160 -24 -59
-39 -70 -87 -63 -38 5 -44 3 -50 -16 -15 -48 36 -66 92 -31 38 23 50 45 133
250 36 90 73 164 87 178 l24 22 -58 0 c-44 -1 -54 -3 -40 -11 24 -14 22 -26
-20 -130 l-36 -92 -43 84 c-47 92 -53 123 -26 138 12 8 -4 10 -63 11 l-79 0
32 -27z"/>
</g>
</svg>
