<?xml version="1.0" standalone="no"?>
<!DOCTYPE svg PUBLIC "-//W3C//DTD SVG 20010904//EN"
 "http://www.w3.org/TR/2001/REC-SVG-20010904/DTD/svg10.dtd">
<svg version="1.0" xmlns="http://www.w3.org/2000/svg"
 width="109.756098pt" height="72.000000pt" viewBox="0 0 109.756098 72.000000"
 preserveAspectRatio="xMidYMid meet">
<metadata>
Created by potrace 1.15, written by Peter Selinger 2001-2017
</metadata>
<g transform="translate(0.000000,72.000000) scale(0.087805,-0.087805)"
fill="#000000" stroke="none">
<path d="M40 618 l45 -23 3 -194 c3 -202 0 -216 -41 -224 -12 -2 16 -4 63 -4
47 0 75 2 63 4 -40 8 -44 23 -41 191 l3 161 150 -184 c83 -101 153 -184 158
-185 4 0 7 96 7 213 0 229 4 251 53 260 12 2 -18 5 -68 5 -82 1 -87 0 -55 -11
l35 -12 3 -164 3 -164 -78 94 c-42 52 -108 131 -145 177 l-69 82 -67 0 -66 0
44 -22z"/>
<path d="M933 482 c-45 -17 -56 -32 -24 -32 27 0 31 -18 31 -134 0 -103 -7
-127 -40 -139 -8 -3 23 -5 70 -5 49 0 75 3 60 7 -25 7 -25 9 -28 124 l-3 117
33 20 c41 25 53 25 78 0 19 -19 20 -31 18 -133 -3 -108 -4 -112 -28 -124 -22
-11 -15 -13 60 -13 75 0 82 2 60 13 -24 12 -25 17 -30 133 -5 131 -19 168 -64
180 -32 8 -59 -2 -96 -33 l-30 -25 0 31 c0 35 -7 37 -67 13z"/>
<path d="M541 479 c33 -12 39 -38 39 -171 0 -92 2 -101 25 -123 34 -35 76 -33
118 5 19 17 37 30 41 30 3 0 6 -14 6 -31 0 -34 5 -34 79 -1 35 16 35 16 10 20
-23 3 -27 9 -33 49 -3 25 -6 88 -6 139 l0 94 -52 0 c-45 -1 -50 -2 -33 -12 32
-18 35 -28 35 -129 0 -86 -2 -98 -22 -117 -32 -29 -69 -36 -93 -18 -18 13 -20
28 -23 145 l-4 131 -56 -1 c-49 0 -53 -2 -31 -10z"/>
</g>
</svg>
