<?xml version="1.0" standalone="no"?>
<!DOCTYPE svg PUBLIC "-//W3C//DTD SVG 20010904//EN"
 "http://www.w3.org/TR/2001/REC-SVG-20010904/DTD/svg10.dtd">
<svg version="1.0" xmlns="http://www.w3.org/2000/svg"
 width="151.902439pt" height="72.000000pt" viewBox="0 0 151.902439 72.000000"
 preserveAspectRatio="xMidYMid meet">
<metadata>
Created by potrace 1.15, written by Peter Selinger 2001-2017
</metadata>
<g transform="translate(0.000000,72.000000) scale(0.087805,-0.087805)"
fill="#000000" stroke="none">
<path d="M109 635 c-39 -21 -59 -59 -59 -109 0 -57 27 -87 138 -150 116 -67
139 -110 87 -161 -45 -46 -152 -26 -188 34 -9 16 -17 36 -17 44 0 9 -5 19 -10
22 -6 4 -10 -24 -10 -76 0 -79 1 -81 18 -65 17 15 23 15 62 1 115 -41 230 17
230 117 0 50 -30 89 -99 128 -77 43 -140 89 -155 113 -14 23 10 67 46 84 55
27 141 -22 154 -86 12 -60 24 -41 24 38 0 45 -4 81 -9 81 -5 0 -11 -5 -13 -12
-4 -10 -13 -10 -45 0 -53 16 -122 15 -154 -3z"/>
<path d="M511 483 c-53 -26 -83 -81 -83 -151 0 -64 15 -103 55 -140 53 -50
146 -33 187 33 32 53 25 70 -13 29 -26 -29 -40 -36 -70 -36 -47 0 -71 20 -93
78 -29 75 -2 160 55 179 29 9 58 -11 66 -44 8 -35 40 -50 62 -29 20 21 2 63
-36 83 -39 19 -87 19 -130 -2z"/>
<path d="M831 482 c-56 -28 -75 -63 -79 -145 -2 -59 1 -78 17 -105 63 -100
192 -91 238 17 8 18 11 36 7 40 -4 3 -9 0 -12 -8 -3 -8 -15 -25 -28 -38 -63
-62 -174 3 -174 103 0 24 0 24 110 24 124 0 131 6 87 71 -40 59 -101 75 -166
41z m91 -29 c8 -10 18 -28 21 -40 5 -22 3 -23 -69 -23 -82 0 -90 8 -53 54 25
31 77 36 101 9z"/>
<path d="M1480 478 c-37 -25 -49 -60 -30 -83 18 -22 50 -1 50 33 0 33 16 52
45 52 30 0 55 -31 55 -68 0 -28 -5 -33 -71 -63 -39 -18 -77 -42 -85 -53 -22
-32 -18 -89 9 -114 31 -29 66 -28 111 3 45 30 44 30 48 3 4 -33 39 -34 77 -3
17 15 31 31 31 37 0 6 -6 6 -15 -2 -8 -7 -22 -10 -30 -6 -12 4 -15 27 -15 120
0 141 -9 157 -91 163 -45 4 -60 1 -89 -19z m120 -183 c0 -62 -1 -65 -31 -81
-45 -23 -79 -7 -79 39 0 41 14 59 65 86 22 11 41 20 43 21 1 0 2 -29 2 -65z"/>
<path d="M1071 467 c17 -14 48 -74 85 -160 32 -76 62 -140 66 -143 5 -3 16 12
24 33 85 205 110 257 127 274 21 19 20 19 -34 19 -41 -1 -50 -3 -36 -11 9 -5
17 -16 17 -24 0 -20 -71 -195 -79 -195 -7 0 -81 179 -81 198 0 7 10 17 23 22
16 6 0 9 -58 9 l-80 1 26 -23z"/>
</g>
</svg>
