<?xml version="1.0" standalone="no"?>
<!DOCTYPE svg PUBLIC "-//W3C//DTD SVG 20010904//EN"
 "http://www.w3.org/TR/2001/REC-SVG-20010904/DTD/svg10.dtd">
<svg version="1.0" xmlns="http://www.w3.org/2000/svg"
 width="127.317073pt" height="72.000000pt" viewBox="0 0 127.317073 72.000000"
 preserveAspectRatio="xMidYMid meet">
<metadata>
Created by potrace 1.15, written by Peter Selinger 2001-2017
</metadata>
<g transform="translate(0.000000,72.000000) scale(0.087805,-0.087805)"
fill="#000000" stroke="none">
<path d="M50 648 c-43 -20 -44 -21 -20 -27 l25 -7 3 -206 2 -205 38 -16 c71
-31 131 -26 177 14 50 44 65 78 65 147 0 127 -102 194 -185 121 l-35 -31 0
116 c0 129 2 127 -70 94z m197 -222 c24 -21 28 -32 31 -92 2 -56 -1 -75 -17
-101 -26 -41 -62 -51 -107 -30 l-34 17 0 100 c0 98 0 100 28 114 39 22 67 19
99 -8z"/>
<path d="M1130 648 c-43 -20 -44 -21 -20 -27 l25 -7 0 -209 0 -209 -25 -13
c-22 -11 -15 -13 60 -12 50 1 75 4 60 8 -24 6 -25 11 -28 86 l-3 79 55 -70
c57 -71 65 -89 44 -97 -7 -3 23 -6 67 -6 78 -1 79 0 50 15 -16 8 -59 51 -94
95 l-64 80 48 49 c27 27 67 56 89 64 l41 14 -74 1 c-66 1 -72 -1 -60 -15 11
-13 4 -23 -44 -72 l-57 -57 0 163 c0 123 -3 162 -12 161 -7 0 -33 -10 -58 -21z"/>
<path d="M470 481 c-74 -40 -105 -156 -63 -238 27 -51 63 -75 120 -80 39 -4
55 0 82 19 57 38 75 71 79 143 4 57 1 70 -21 104 -45 67 -127 89 -197 52z
m110 -29 c51 -52 65 -177 26 -236 -24 -37 -86 -37 -115 0 -29 37 -44 99 -39
163 4 44 10 59 32 78 36 30 61 29 96 -5z"/>
<path d="M830 481 c-74 -40 -105 -156 -63 -238 27 -51 63 -75 120 -80 39 -4
55 0 82 19 57 38 75 71 79 143 4 57 1 70 -21 104 -45 67 -127 89 -197 52z
m110 -29 c51 -52 65 -177 26 -236 -24 -37 -86 -37 -115 0 -29 37 -44 99 -39
163 4 44 10 59 32 78 36 30 61 29 96 -5z"/>
</g>
</svg>
