<?xml version="1.0" standalone="no"?>
<!DOCTYPE svg PUBLIC "-//W3C//DTD SVG 20010904//EN"
 "http://www.w3.org/TR/2001/REC-SVG-20010904/DTD/svg10.dtd">
<svg version="1.0" xmlns="http://www.w3.org/2000/svg"
 width="116.780488pt" height="72.000000pt" viewBox="0 0 116.780488 72.000000"
 preserveAspectRatio="xMidYMid meet">
<metadata>
Created by potrace 1.15, written by Peter Selinger 2001-2017
</metadata>
<g transform="translate(0.000000,72.000000) scale(0.087805,-0.087805)"
fill="#000000" stroke="none">
<path d="M522 658 c-19 -19 -14 -46 9 -53 30 -10 58 19 43 43 -14 22 -36 26
-52 10z"/>
<path d="M680 648 c-43 -20 -44 -21 -20 -27 l25 -7 3 -206 2 -205 38 -16 c71
-31 131 -26 177 14 50 44 65 78 65 147 0 127 -102 194 -185 121 l-35 -31 0
116 c0 129 2 127 -70 94z m197 -222 c24 -21 28 -32 31 -92 2 -56 -1 -75 -17
-101 -26 -41 -62 -51 -107 -30 l-34 17 0 100 c0 98 0 100 28 114 39 22 67 19
99 -8z"/>
<path d="M90 560 c-7 -17 -28 -43 -46 -60 -41 -35 -42 -40 -9 -40 l25 0 0
-130 c0 -117 2 -132 20 -150 27 -27 52 -25 89 6 37 31 41 51 6 28 -48 -32 -55
-17 -55 121 l0 125 35 0 c19 0 35 5 35 10 0 6 -16 10 -35 10 l-35 0 0 55 c0
61 -11 70 -30 25z"/>
<path d="M263 481 c-51 -20 -63 -31 -35 -31 29 0 33 -23 30 -150 -3 -100 -4
-105 -28 -117 -22 -11 -15 -13 60 -13 75 0 82 2 60 13 -24 12 -25 17 -28 118
-2 92 0 109 17 130 17 21 21 22 44 10 31 -17 57 -8 57 18 0 48 -63 46 -102 -3
l-18 -21 0 27 c0 36 -8 39 -57 19z"/>
<path d="M500 477 c-42 -19 -43 -21 -19 -24 23 -4 27 -10 33 -50 16 -116 4
-210 -28 -223 -14 -6 5 -9 59 -9 44 1 73 3 65 6 -35 12 -40 35 -40 180 0 108
-3 143 -12 142 -7 0 -33 -10 -58 -22z"/>
<path d="M1111 482 c-56 -28 -75 -63 -79 -145 -2 -59 1 -78 17 -105 63 -100
192 -91 238 17 8 18 11 36 7 40 -4 3 -9 0 -12 -8 -3 -8 -15 -25 -28 -38 -63
-62 -174 3 -174 103 0 24 0 24 110 24 124 0 131 6 87 71 -40 59 -101 75 -166
41z m91 -29 c8 -10 18 -28 21 -40 5 -22 3 -23 -69 -23 -82 0 -90 8 -53 54 25
31 77 36 101 9z"/>
</g>
</svg>
