<?xml version="1.0" standalone="no"?>
<!DOCTYPE svg PUBLIC "-//W3C//DTD SVG 20010904//EN"
 "http://www.w3.org/TR/2001/REC-SVG-20010904/DTD/svg10.dtd">
<svg version="1.0" xmlns="http://www.w3.org/2000/svg"
 width="139.609756pt" height="72.000000pt" viewBox="0 0 139.609756 72.000000"
 preserveAspectRatio="xMidYMid meet">
<metadata>
Created by potrace 1.15, written by Peter Selinger 2001-2017
</metadata>
<g transform="translate(0.000000,72.000000) scale(0.087805,-0.087805)"
fill="#000000" stroke="none">
<path d="M1460 648 c-43 -20 -44 -21 -20 -27 23 -6 25 -12 28 -75 3 -66 3 -67
-19 -55 -12 6 -41 9 -66 6 -146 -16 -190 -259 -59 -321 44 -21 63 -20 109 4
l37 20 0 -21 c0 -22 9 -21 79 9 35 15 35 15 11 22 l-25 6 -3 227 c-2 172 -5
227 -15 226 -6 0 -32 -10 -57 -21z m-20 -188 c27 -27 31 -51 28 -150 -3 -80
-4 -85 -30 -99 -75 -42 -146 63 -124 182 14 73 83 110 126 67z"/>
<path d="M32 625 c17 -10 33 -33 46 -67 11 -29 48 -131 82 -225 35 -95 66
-173 70 -173 4 0 29 60 54 133 26 73 51 138 55 145 5 9 25 -35 56 -120 26 -73
50 -139 52 -146 3 -6 9 -12 13 -12 4 0 41 96 81 213 53 152 81 220 101 240
l26 27 -71 -1 c-60 0 -68 -2 -44 -11 19 -7 27 -17 27 -33 0 -25 -87 -284 -100
-298 -10 -11 -114 289 -106 308 3 9 16 20 28 25 16 6 -5 9 -72 9 -89 0 -93 -1
-68 -14 17 -10 33 -33 46 -67 l19 -52 -33 -100 c-19 -55 -38 -104 -42 -108
-11 -11 -116 288 -108 307 3 9 16 20 28 25 16 6 -5 9 -72 9 -89 0 -93 -1 -68
-14z"/>
<path d="M730 481 c-74 -40 -105 -156 -63 -238 27 -51 63 -75 120 -80 39 -4
55 0 82 19 57 38 75 71 79 143 4 57 1 70 -21 104 -45 67 -127 89 -197 52z
m110 -29 c51 -52 65 -177 26 -236 -24 -37 -86 -37 -115 0 -29 37 -44 99 -39
163 4 44 10 59 32 78 36 30 61 29 96 -5z"/>
<path d="M1043 481 c-51 -20 -63 -31 -35 -31 29 0 33 -23 30 -150 -3 -100 -4
-105 -28 -117 -22 -11 -15 -13 60 -13 75 0 82 2 60 13 -24 12 -25 17 -28 118
-2 92 0 109 17 130 17 21 21 22 44 10 31 -17 57 -8 57 18 0 48 -63 46 -102 -3
l-18 -21 0 27 c0 36 -8 39 -57 19z"/>
</g>
</svg>
