<?xml version="1.0" standalone="no"?>
<!DOCTYPE svg PUBLIC "-//W3C//DTD SVG 20010904//EN"
 "http://www.w3.org/TR/2001/REC-SVG-20010904/DTD/svg10.dtd">
<svg version="1.0" xmlns="http://www.w3.org/2000/svg"
 width="99.219512pt" height="72.000000pt" viewBox="0 0 99.219512 72.000000"
 preserveAspectRatio="xMidYMid meet">
<metadata>
Created by potrace 1.15, written by Peter Selinger 2001-2017
</metadata>
<g transform="translate(0.000000,72.000000) scale(0.087805,-0.087805)"
fill="#000000" stroke="none">
<path d="M90 560 c-7 -17 -28 -43 -46 -60 -41 -35 -42 -40 -9 -40 l25 0 0
-130 c0 -117 2 -132 20 -150 27 -27 52 -25 89 6 37 31 41 51 6 28 -48 -32 -55
-17 -55 121 l0 125 35 0 c19 0 35 5 35 10 0 6 -16 10 -35 10 l-35 0 0 55 c0
61 -11 70 -30 25z"/>
<path d="M263 481 c-51 -20 -63 -31 -35 -31 29 0 33 -23 30 -150 -3 -100 -4
-105 -28 -117 -22 -11 -15 -13 60 -13 75 0 82 2 60 13 -24 12 -25 17 -28 118
-2 92 0 109 17 130 17 21 21 22 44 10 32 -17 57 -8 57 19 0 21 16 26 40 10 11
-7 16 -40 20 -140 5 -123 7 -133 29 -151 34 -28 75 -24 114 11 19 16 37 30 41
30 3 0 6 -14 6 -31 0 -34 5 -34 79 -1 35 16 35 16 10 20 -23 3 -27 9 -33 49
-3 25 -6 88 -6 139 l0 94 -52 0 c-45 -1 -50 -2 -33 -12 32 -18 35 -28 35 -129
0 -86 -2 -98 -22 -117 -32 -29 -69 -36 -93 -18 -18 13 -20 28 -23 146 l-4 131
-62 -2 c-35 -1 -68 1 -74 5 -15 9 -52 -10 -74 -38 l-18 -21 0 27 c0 36 -8 39
-57 19z"/>
<path d="M911 482 c-56 -28 -75 -63 -79 -145 -2 -59 1 -78 17 -105 63 -100
192 -91 238 17 8 18 11 36 7 40 -4 3 -9 0 -12 -8 -3 -8 -15 -25 -28 -38 -63
-62 -174 3 -174 103 0 24 0 24 110 24 124 0 131 6 87 71 -40 59 -101 75 -166
41z m91 -29 c8 -10 18 -28 21 -40 5 -22 3 -23 -69 -23 -82 0 -90 8 -53 54 25
31 77 36 101 9z"/>
</g>
</svg>
